<svg viewBox="0 0 600 330" xmlns="http://www.w3.org/2000/svg" font-family="Calibri, Arial, sans-serif"><defs><marker id="ar" markerWidth="9" markerHeight="9" refX="7" refY="3" orient="auto" markerUnits="strokeWidth"><path d="M0,0 L7,3 L0,6 Z" fill="#334155"/></marker><marker id="arT" markerWidth="9" markerHeight="9" refX="7" refY="3" orient="auto" markerUnits="strokeWidth"><path d="M0,0 L7,3 L0,6 Z" fill="#0f766e"/></marker><marker id="arR" markerWidth="9" markerHeight="9" refX="7" refY="3" orient="auto" markerUnits="strokeWidth"><path d="M0,0 L7,3 L0,6 Z" fill="#dc2626"/></marker><marker id="arO" markerWidth="9" markerHeight="9" refX="7" refY="3" orient="auto" markerUnits="strokeWidth"><path d="M0,0 L7,3 L0,6 Z" fill="#b45309"/></marker><marker id="arB" markerWidth="9" markerHeight="9" refX="7" refY="3" orient="auto" markerUnits="strokeWidth"><path d="M0,0 L7,3 L0,6 Z" fill="#2563eb"/></marker></defs><rect x="20" y="40" width="560" height="285" rx="12" fill="#ffffff" stroke="#e2e8f0" stroke-width="1.5"/><text x="300" y="68" text-anchor="middle" font-size="16" font-weight="bold" fill="#1f2a37">Absorption edge: direct vs indirect</text><text x="300" y="86" text-anchor="middle" font-size="12.5" fill="#64748b">α ~ (ħω−E_g)^(1/2) direct   vs   (ħω−E_g)² indirect</text><line x1="90" y1="290" x2="548" y2="290" stroke="#334155" stroke-width="1.3" marker-end="url(#ar)"/><line x1="90" y1="290" x2="90" y2="104" stroke="#334155" stroke-width="1.3" marker-end="url(#ar)"/><text x="542" y="308" font-size="12" font-style="italic" fill="#334155">ħω</text><text x="82" y="110" text-anchor="end" font-size="12" font-style="italic" fill="#334155">α</text><line x1="216.0" y1="108" x2="216.0" y2="290" stroke="#94a3b8" stroke-width="1.2" stroke-dasharray="5 4"/><text x="216.0" y="308" text-anchor="middle" font-size="11.5" fill="#475569">E_g</text><polyline points="90.0,290.0 92.2,290.0 94.5,290.0 96.8,290.0 99.0,290.0 101.2,290.0 103.5,290.0 105.8,290.0 108.0,290.0 110.2,290.0 112.5,290.0 114.8,290.0 117.0,290.0 119.2,290.0 121.5,290.0 123.8,290.0 126.0,290.0 128.2,290.0 130.5,290.0 132.8,290.0 135.0,290.0 137.2,290.0 139.5,290.0 141.8,290.0 144.0,290.0 146.2,290.0 148.5,290.0 150.8,290.0 153.0,290.0 155.2,290.0 157.5,290.0 159.8,290.0 162.0,290.0 164.2,290.0 166.5,290.0 168.8,290.0 171.0,290.0 173.2,290.0 175.5,290.0 177.8,290.0 180.0,290.0 182.2,290.0 184.5,290.0 186.8,290.0 189.0,290.0 191.2,290.0 193.5,290.0 195.8,290.0 198.0,290.0 200.2,290.0 202.5,290.0 204.8,290.0 207.0,290.0 209.2,290.0 211.5,290.0 213.8,290.0 216.0,290.0 218.2,275.0 220.5,268.8 222.8,264.0 225.0,260.0 227.2,256.5 229.5,253.3 231.8,250.3 234.0,247.6 236.2,245.0 238.5,242.6 240.8,240.3 243.0,238.0 245.2,235.9 247.5,233.9 249.8,231.9 252.0,230.0 254.2,228.2 256.5,226.4 258.8,224.6 261.0,222.9 263.2,221.3 265.5,219.6 267.8,218.1 270.0,216.5 272.2,215.0 274.5,213.5 276.8,212.1 279.0,210.6 281.2,209.2 283.5,207.8 285.8,206.5 288.0,205.1 290.2,203.8 292.5,202.5 294.8,201.3 297.0,200.0 299.2,198.8 301.5,197.5 303.8,196.3 306.0,195.1 308.2,194.0 310.5,192.8 312.8,191.6 315.0,190.5 317.2,189.4 319.5,188.3 321.8,187.2 324.0,186.1 326.2,185.0 328.5,183.9 330.8,182.9 333.0,181.8 335.2,180.8 337.5,179.8 339.8,178.8 342.0,177.8 344.2,176.8 346.5,175.8 348.8,174.8 351.0,173.8 353.2,172.8 355.5,171.9 357.8,170.9 360.0,170.0 362.2,169.1 364.5,168.1 366.8,167.2 369.0,166.3 371.2,165.4 373.5,164.5 375.8,163.6 378.0,162.7 380.2,161.8 382.5,161.0 384.8,160.1 387.0,159.2 389.2,158.4 391.5,157.5 393.8,156.7 396.0,155.8 398.2,155.0 400.5,154.2 402.8,153.3 405.0,152.5 407.2,151.7 409.5,150.9 411.8,150.1 414.0,149.3 416.2,148.5 418.5,147.7 420.8,146.9 423.0,146.1 425.2,145.3 427.5,144.6 429.8,143.8 432.0,143.0 434.2,142.3 436.5,141.5 438.8,140.8 441.0,140.0 443.2,139.3 445.5,138.5 447.8,137.8 450.0,137.0 452.2,136.3 454.5,135.6 456.8,134.8 459.0,134.1 461.2,133.4 463.5,132.7 465.8,132.0 468.0,131.3 470.2,130.5 472.5,129.8 474.8,129.1 477.0,128.4 479.2,127.8 481.5,127.1 483.8,126.4 486.0,125.7 488.2,125.0 490.5,124.3 492.8,123.6 495.0,123.0 497.2,122.3 499.5,121.6 501.8,121.0 504.0,120.3 506.2,119.6 508.5,119.0 510.8,118.3 513.0,117.7 515.2,117.0 517.5,116.4 519.8,115.7 522.0,115.1 524.2,114.4 526.5,113.8 528.8,113.2 531.0,112.5 533.2,111.9 535.5,111.3 537.8,110.6 540.0,110.0" fill="none" stroke="#0d9488" stroke-width="2.6"/><polyline points="90.0,290.0 92.2,290.0 94.5,290.0 96.8,290.0 99.0,290.0 101.2,290.0 103.5,290.0 105.8,290.0 108.0,290.0 110.2,290.0 112.5,290.0 114.8,290.0 117.0,290.0 119.2,290.0 121.5,290.0 123.8,290.0 126.0,290.0 128.2,290.0 130.5,290.0 132.8,290.0 135.0,290.0 137.2,290.0 139.5,290.0 141.8,290.0 144.0,290.0 146.2,290.0 148.5,290.0 150.8,290.0 153.0,290.0 155.2,290.0 157.5,290.0 159.8,290.0 162.0,290.0 164.2,290.0 166.5,290.0 168.8,290.0 171.0,290.0 173.2,290.0 175.5,290.0 177.8,290.0 180.0,290.0 182.2,290.0 184.5,290.0 186.8,290.0 189.0,290.0 191.2,290.0 193.5,290.0 195.8,290.0 198.0,290.0 200.2,290.0 202.5,290.0 204.8,290.0 207.0,290.0 209.2,290.0 211.5,290.0 213.8,290.0 216.0,290.0 218.2,290.0 220.5,290.0 222.8,289.9 225.0,289.9 227.2,289.8 229.5,289.7 231.8,289.6 234.0,289.4 236.2,289.3 238.5,289.1 240.8,288.9 243.0,288.8 245.2,288.5 247.5,288.3 249.8,288.0 252.0,287.8 254.2,287.5 256.5,287.2 258.8,286.9 261.0,286.5 263.2,286.2 265.5,285.8 267.8,285.4 270.0,285.0 272.2,284.6 274.5,284.1 276.8,283.7 279.0,283.2 281.2,282.7 283.5,282.2 285.8,281.7 288.0,281.1 290.2,280.5 292.5,280.0 294.8,279.4 297.0,278.8 299.2,278.1 301.5,277.5 303.8,276.8 306.0,276.1 308.2,275.4 310.5,274.7 312.8,273.9 315.0,273.2 317.2,272.4 319.5,271.6 321.8,270.8 324.0,270.0 326.2,269.2 328.5,268.3 330.8,267.4 333.0,266.5 335.2,265.6 337.5,264.7 339.8,263.7 342.0,262.8 344.2,261.8 346.5,260.8 348.8,259.8 351.0,258.8 353.2,257.7 355.5,256.6 357.8,255.5 360.0,254.4 362.2,253.3 364.5,252.2 366.8,251.0 369.0,249.9 371.2,248.7 373.5,247.5 375.8,246.2 378.0,245.0 380.2,243.7 382.5,242.5 384.8,241.2 387.0,239.9 389.2,238.5 391.5,237.2 393.8,235.8 396.0,234.4 398.2,233.0 400.5,231.6 402.8,230.2 405.0,228.8 407.2,227.3 409.5,225.8 411.8,224.3 414.0,222.8 416.2,221.2 418.5,219.7 420.8,218.1 423.0,216.5 425.2,214.9 427.5,213.3 429.8,211.7 432.0,210.0 434.2,208.3 436.5,206.6 438.8,204.9 441.0,203.2 443.2,201.4 445.5,199.7 447.8,197.9 450.0,196.1 452.2,194.3 454.5,192.5 456.8,190.6 459.0,188.8 461.2,186.9 463.5,185.0 465.8,183.0 468.0,181.1 470.2,179.2 472.5,177.2 474.8,175.2 477.0,173.2 479.2,171.2 481.5,169.1 483.8,167.1 486.0,165.0 488.2,162.9 490.5,160.8 492.8,158.7 495.0,156.5 497.2,154.4 499.5,152.2 501.8,150.0 504.0,147.8 506.2,145.5 508.5,143.3 510.8,141.0 513.0,138.8 515.2,136.4 517.5,134.1 519.8,131.8 522.0,129.4 524.2,127.1 526.5,124.7 528.8,122.3 531.0,119.9 533.2,117.4 535.5,115.0 537.8,112.5 540.0,110.0" fill="none" stroke="#7c3aed" stroke-width="2.6"/><text x="338" y="124" font-size="11.5" fill="#0d9488">direct (√, strong)</text><text x="428" y="236" font-size="11.5" fill="#7c3aed">indirect (gentle)</text><text x="300" y="320" text-anchor="middle" font-size="12" fill="#475569">Direct edge rises steeply; indirect edge is weak (needs a phonon).</text></svg>