<svg viewBox="0 0 580 345" xmlns="http://www.w3.org/2000/svg" font-family="Calibri, Arial, sans-serif"><defs><marker id="ar" markerWidth="9" markerHeight="9" refX="7" refY="3" orient="auto" markerUnits="strokeWidth"><path d="M0,0 L7,3 L0,6 Z" fill="#334155"/></marker><marker id="arR" markerWidth="9" markerHeight="9" refX="7" refY="3" orient="auto" markerUnits="strokeWidth"><path d="M0,0 L7,3 L0,6 Z" fill="#dc2626"/></marker><marker id="arRs" markerWidth="9" markerHeight="9" refX="2" refY="3" orient="auto" markerUnits="strokeWidth"><path d="M7,0 L0,3 L7,6 Z" fill="#dc2626"/></marker><marker id="arT" markerWidth="9" markerHeight="9" refX="7" refY="3" orient="auto" markerUnits="strokeWidth"><path d="M0,0 L7,3 L0,6 Z" fill="#0f766e"/></marker><marker id="arB" markerWidth="9" markerHeight="9" refX="7" refY="3" orient="auto" markerUnits="strokeWidth"><path d="M0,0 L7,3 L0,6 Z" fill="#b45309"/></marker></defs><rect x="20" y="40" width="540" height="300" rx="12" fill="#ffffff" stroke="#e2e8f0" stroke-width="1.5"/><text x="290" y="68" text-anchor="middle" font-size="16" font-weight="bold" fill="#1f2a37">From atomic levels to energy bands</text><text x="290" y="86" text-anchor="middle" font-size="12.5" fill="#64748b">discrete levels split into bands as atoms approach</text><line x1="70" y1="312" x2="70" y2="110" stroke="#334155" stroke-width="1.5" marker-end="url(#ar)"/><text x="60" y="118" font-size="12" fill="#334155">E</text><line x1="530" y1="312" x2="92" y2="312" stroke="#334155" stroke-width="1.5" marker-end="url(#ar)"/><text x="300" y="332" text-anchor="middle" font-size="11.5" fill="#334155">decreasing interatomic distance →</text><text x="500" y="300" text-anchor="middle" font-size="11" fill="#64748b">isolated atoms</text><path d="M500,150 Q360,140 150,120 L150,178 Q360,160 500,150 Z" fill="#14b8a6" fill-opacity="0.18" stroke="#0d9488" stroke-width="1.8"/><path d="M500,250 Q360,240 150,216 L150,276 Q360,262 500,250 Z" fill="#7c3aed" fill-opacity="0.22" stroke="#7c3aed" stroke-width="1.8"/><line x1="494" y1="150" x2="522" y2="150" stroke="#0d9488" stroke-width="2.8"/><line x1="494" y1="250" x2="522" y2="250" stroke="#7c3aed" stroke-width="2.8"/><line x1="178" y1="112" x2="178" y2="312" stroke="#94a3b8" stroke-width="1.4" stroke-dasharray="5 4"/><text x="178" y="106" text-anchor="middle" font-size="11.5" fill="#475569">a<tspan baseline-shift="sub" font-size="9">0</tspan></text><line x1="206" y1="180" x2="206" y2="212" stroke="#dc2626" stroke-width="2" marker-start="url(#arRs)" marker-end="url(#arR)"/><text x="215" y="200" font-size="12" font-weight="bold" fill="#dc2626">E<tspan baseline-shift="sub" font-size="9">g</tspan></text><text x="320" y="136" text-anchor="middle" font-size="11.5" fill="#0d9488">conduction band (empty)</text><text x="330" y="298" text-anchor="middle" font-size="11.5" fill="#7c3aed">valence band (filled)</text></svg>