<svg viewBox="0 0 880 360" xmlns="http://www.w3.org/2000/svg" font-family="Calibri, Arial, sans-serif"><defs><marker id="ar" markerWidth="9" markerHeight="9" refX="7" refY="3" orient="auto" markerUnits="strokeWidth"><path d="M0,0 L7,3 L0,6 Z" fill="#334155"/></marker><marker id="arR" markerWidth="9" markerHeight="9" refX="7" refY="3" orient="auto" markerUnits="strokeWidth"><path d="M0,0 L7,3 L0,6 Z" fill="#dc2626"/></marker><marker id="arRs" markerWidth="9" markerHeight="9" refX="2" refY="3" orient="auto" markerUnits="strokeWidth"><path d="M7,0 L0,3 L7,6 Z" fill="#dc2626"/></marker><marker id="arT" markerWidth="9" markerHeight="9" refX="7" refY="3" orient="auto" markerUnits="strokeWidth"><path d="M0,0 L7,3 L0,6 Z" fill="#0f766e"/></marker><marker id="arB" markerWidth="9" markerHeight="9" refX="7" refY="3" orient="auto" markerUnits="strokeWidth"><path d="M0,0 L7,3 L0,6 Z" fill="#b45309"/></marker></defs><rect x="20" y="40" width="400" height="300" rx="12" fill="#ffffff" stroke="#e2e8f0" stroke-width="1.5"/><text x="220" y="68" text-anchor="middle" font-size="16" font-weight="bold" fill="#1f2a37">GaAs — direct gap</text><text x="220" y="86" text-anchor="middle" font-size="12.5" fill="#64748b">conduction min. &amp; valence max. at same k</text><line x1="75" y1="300" x2="75" y2="100" stroke="#334155" stroke-width="1.5" marker-end="url(#ar)"/><line x1="75" y1="300" x2="380" y2="300" stroke="#334155" stroke-width="1.5" marker-end="url(#ar)"/><text x="65" y="108" font-size="12" fill="#334155">E</text><text x="381" y="318" font-size="12" fill="#334155">k</text><path d="M90.00,310.00 Q220.00,190.00 350.00,310.00" fill="none" stroke="#7c3aed" stroke-width="2.6"/><text x="92" y="300" font-size="11.5" fill="#7c3aed">VB</text><path d="M112.00,90.00 Q220.00,210.00 328.00,90.00" fill="none" stroke="#0d9488" stroke-width="2.6"/><text x="352" y="118" font-size="11.5" fill="#0d9488">CB</text><line x1="220" y1="247" x2="220" y2="155" stroke="#dc2626" stroke-width="2.4" marker-end="url(#arR)"/><text x="228" y="206" font-size="11.5" fill="#dc2626">photon</text><text x="148" y="206" font-size="12" font-weight="bold" fill="#dc2626">E<tspan baseline-shift="sub" font-size="9">g</tspan></text><rect x="460" y="40" width="400" height="300" rx="12" fill="#ffffff" stroke="#e2e8f0" stroke-width="1.5"/><text x="660" y="68" text-anchor="middle" font-size="16" font-weight="bold" fill="#1f2a37">Si — indirect gap</text><text x="660" y="86" text-anchor="middle" font-size="12.5" fill="#64748b">band extrema at different k</text><line x1="515" y1="300" x2="515" y2="100" stroke="#334155" stroke-width="1.5" marker-end="url(#ar)"/><line x1="515" y1="300" x2="820" y2="300" stroke="#334155" stroke-width="1.5" marker-end="url(#ar)"/><text x="505" y="108" font-size="12" fill="#334155">E</text><text x="821" y="318" font-size="12" fill="#334155">k</text><path d="M530.00,310.00 Q660.00,190.00 790.00,310.00" fill="none" stroke="#7c3aed" stroke-width="2.6"/><text x="532" y="300" font-size="11.5" fill="#7c3aed">VB</text><path d="M624.00,90.00 Q732.00,210.00 840.00,90.00" fill="none" stroke="#0d9488" stroke-width="2.6"/><text x="792" y="118" font-size="11.5" fill="#0d9488">CB</text><line x1="660" y1="247" x2="729" y2="156" stroke="#dc2626" stroke-width="2.4" marker-end="url(#arR)"/><line x1="660" y1="322" x2="732" y2="322" stroke="#b45309" stroke-width="2" marker-end="url(#arB)"/><text x="696" y="337" text-anchor="middle" font-size="11" fill="#b45309">phonon Δk</text><text x="626" y="200" font-size="11.5" fill="#dc2626">photon</text><text x="440" y="352" text-anchor="middle" font-size="12" fill="#475569">Direct gap → vertical photon transition (good emitter).  Indirect gap → needs a phonon for Δk (poor emitter).</text></svg>