<svg viewBox="0 0 600 330" xmlns="http://www.w3.org/2000/svg" font-family="Calibri, Arial, sans-serif"><defs><marker id="ar" markerWidth="9" markerHeight="9" refX="7" refY="3" orient="auto" markerUnits="strokeWidth"><path d="M0,0 L7,3 L0,6 Z" fill="#334155"/></marker><marker id="arT" markerWidth="9" markerHeight="9" refX="7" refY="3" orient="auto" markerUnits="strokeWidth"><path d="M0,0 L7,3 L0,6 Z" fill="#0f766e"/></marker><marker id="arR" markerWidth="9" markerHeight="9" refX="7" refY="3" orient="auto" markerUnits="strokeWidth"><path d="M0,0 L7,3 L0,6 Z" fill="#dc2626"/></marker><marker id="arO" markerWidth="9" markerHeight="9" refX="7" refY="3" orient="auto" markerUnits="strokeWidth"><path d="M0,0 L7,3 L0,6 Z" fill="#b45309"/></marker><marker id="arB" markerWidth="9" markerHeight="9" refX="7" refY="3" orient="auto" markerUnits="strokeWidth"><path d="M0,0 L7,3 L0,6 Z" fill="#2563eb"/></marker></defs><rect x="20" y="40" width="560" height="285" rx="12" fill="#ffffff" stroke="#e2e8f0" stroke-width="1.5"/><text x="300" y="68" text-anchor="middle" font-size="16" font-weight="bold" fill="#1f2a37">Beer–Lambert absorption</text><text x="300" y="86" text-anchor="middle" font-size="12.5" fill="#64748b">I(x) = I₀ e^(−αx)</text><rect x="90" y="110" width="450" height="180" fill="#14b8a6" fill-opacity="0.06"/><line x1="90" y1="290" x2="548" y2="290" stroke="#334155" stroke-width="1.3" marker-end="url(#ar)"/><line x1="90" y1="290" x2="90" y2="104" stroke="#334155" stroke-width="1.3" marker-end="url(#ar)"/><text x="542" y="308" font-size="12" font-style="italic" fill="#334155">depth x</text><text x="82" y="110" text-anchor="end" font-size="12" font-style="italic" fill="#334155">I</text><line x1="44" y1="110" x2="86" y2="110" stroke="#b45309" stroke-width="2.6" marker-end="url(#arO)"/><text x="44" y="102" font-size="11" fill="#b45309">I₀</text><polyline points="90.0,110.0 92.2,114.4 94.5,118.8 96.8,123.0 99.0,127.1 101.2,131.2 103.5,135.1 105.8,138.9 108.0,142.6 110.2,146.3 112.5,149.8 114.8,153.3 117.0,156.7 119.2,159.9 121.5,163.2 123.8,166.3 126.0,169.3 128.2,172.3 130.5,175.2 132.8,178.1 135.0,180.8 137.2,183.5 139.5,186.1 141.8,188.7 144.0,191.2 146.2,193.7 148.5,196.0 150.8,198.4 153.0,200.6 155.2,202.8 157.5,205.0 159.8,207.1 162.0,209.1 164.2,211.1 166.5,213.1 168.8,215.0 171.0,216.8 173.2,218.6 175.5,220.4 177.8,222.1 180.0,223.8 182.2,225.4 184.5,227.0 186.8,228.6 189.0,230.1 191.2,231.6 193.5,233.0 195.8,234.4 198.0,235.8 200.2,237.1 202.5,238.4 204.8,239.7 207.0,240.9 209.2,242.2 211.5,243.3 213.8,244.5 216.0,245.6 218.2,246.7 220.5,247.8 222.8,248.8 225.0,249.8 227.2,250.8 229.5,251.8 231.8,252.7 234.0,253.7 236.2,254.6 238.5,255.4 240.8,256.3 243.0,257.1 245.2,257.9 247.5,258.7 249.8,259.5 252.0,260.2 254.2,261.0 256.5,261.7 258.8,262.4 261.0,263.1 263.2,263.7 265.5,264.4 267.8,265.0 270.0,265.6 272.2,266.2 274.5,266.8 276.8,267.4 279.0,268.0 281.2,268.5 283.5,269.0 285.8,269.6 288.0,270.1 290.2,270.5 292.5,271.0 294.8,271.5 297.0,272.0 299.2,272.4 301.5,272.8 303.8,273.3 306.0,273.7 308.2,274.1 310.5,274.5 312.8,274.9 315.0,275.2 317.2,275.6 319.5,275.9 321.8,276.3 324.0,276.6 326.2,277.0 328.5,277.3 330.8,277.6 333.0,277.9 335.2,278.2 337.5,278.5 339.8,278.8 342.0,279.1 344.2,279.3 346.5,279.6 348.8,279.8 351.0,280.1 353.2,280.3 355.5,280.6 357.8,280.8 360.0,281.0 362.2,281.3 364.5,281.5 366.8,281.7 369.0,281.9 371.2,282.1 373.5,282.3 375.8,282.5 378.0,282.7 380.2,282.8 382.5,283.0 384.8,283.2 387.0,283.4 389.2,283.5 391.5,283.7 393.8,283.8 396.0,284.0 398.2,284.1 400.5,284.3 402.8,284.4 405.0,284.6 407.2,284.7 409.5,284.8 411.8,285.0 414.0,285.1 416.2,285.2 418.5,285.3 420.8,285.4 423.0,285.5 425.2,285.7 427.5,285.8 429.8,285.9 432.0,286.0 434.2,286.1 436.5,286.2 438.8,286.3 441.0,286.4 443.2,286.4 445.5,286.5 447.8,286.6 450.0,286.7 452.2,286.8 454.5,286.9 456.8,286.9 459.0,287.0 461.2,287.1 463.5,287.2 465.8,287.2 468.0,287.3 470.2,287.4 472.5,287.4 474.8,287.5 477.0,287.6 479.2,287.6 481.5,287.7 483.8,287.7 486.0,287.8 488.2,287.8 490.5,287.9 492.7,287.9 495.0,288.0 497.2,288.0 499.5,288.1 501.8,288.1 504.0,288.2 506.2,288.2 508.5,288.3 510.8,288.3 513.0,288.4 515.2,288.4 517.5,288.4 519.8,288.5 522.0,288.5 524.2,288.6 526.5,288.6 528.8,288.6 531.0,288.7 533.2,288.7 535.5,288.7 537.8,288.8 540.0,288.8" fill="none" stroke="#0d9488" stroke-width="2.6"/><line x1="180.0" y1="290" x2="180.0" y2="223.8" stroke="#dc2626" stroke-width="1.3" stroke-dasharray="5 4"/><line x1="90" y1="223.8" x2="180.0" y2="223.8" stroke="#dc2626" stroke-width="1.3" stroke-dasharray="5 4"/><circle cx="180.0" cy="223.8" r="3.5" fill="#dc2626"/><text x="180.0" y="308" text-anchor="middle" font-size="11.5" fill="#dc2626">1/α</text><text x="82" y="228" text-anchor="end" font-size="10.5" fill="#dc2626">I₀/e</text><text x="300" y="320" text-anchor="middle" font-size="12" fill="#475569">The penetration depth 1/α sets the thickness needed to absorb the light.</text></svg>