<svg viewBox="0 0 740 470" xmlns="http://www.w3.org/2000/svg" font-family="Calibri, Arial, sans-serif"><defs><marker id="ar" markerWidth="9" markerHeight="9" refX="7" refY="3" orient="auto" markerUnits="strokeWidth"><path d="M0,0 L7,3 L0,6 Z" fill="#334155"/></marker></defs><rect x="15" y="30" width="710" height="425" rx="10" fill="#ffffff" stroke="#e2e8f0" stroke-width="1.5"/><text x="370" y="58" text-anchor="middle" font-size="16" font-weight="bold" fill="#1f2a37">Four canonical potentials</text><text x="370" y="76" text-anchor="middle" font-size="12.5" fill="#64748b">the building blocks solved from the Schrödinger equation</text><rect x="30" y="92" width="330" height="150" rx="10" fill="#f8fafc" stroke="#e2e8f0" stroke-width="1.5"/><text x="44" y="114" font-size="13" font-weight="bold" fill="#0f766e">(a) Free electron  (V = 0)</text><line x1="50" y1="207" x2="340" y2="207" stroke="#dc2626" stroke-width="2.2"/><polyline points="60.0,162.0 62.2,165.4 64.5,168.8 66.8,172.0 69.0,174.9 71.2,177.6 73.5,179.8 75.8,181.6 78.0,182.9 80.2,183.7 82.5,184.0 84.8,183.7 87.0,182.9 89.2,181.6 91.5,179.8 93.8,177.6 96.0,174.9 98.2,172.0 100.5,168.8 102.8,165.4 105.0,162.0 107.2,158.6 109.5,155.2 111.8,152.0 114.0,149.1 116.2,146.4 118.5,144.2 120.8,142.4 123.0,141.1 125.2,140.3 127.5,140.0 129.8,140.3 132.0,141.1 134.2,142.4 136.5,144.2 138.8,146.4 141.0,149.1 143.2,152.0 145.5,155.2 147.8,158.6 150.0,162.0 152.2,165.4 154.5,168.8 156.8,172.0 159.0,174.9 161.2,177.6 163.5,179.8 165.8,181.6 168.0,182.9 170.2,183.7 172.5,184.0 174.8,183.7 177.0,182.9 179.2,181.6 181.5,179.8 183.8,177.6 186.0,174.9 188.2,172.0 190.5,168.8 192.8,165.4 195.0,162.0 197.2,158.6 199.5,155.2 201.8,152.0 204.0,149.1 206.2,146.4 208.5,144.2 210.8,142.4 213.0,141.1 215.2,140.3 217.5,140.0 219.8,140.3 222.0,141.1 224.2,142.4 226.5,144.2 228.8,146.4 231.0,149.1 233.2,152.0 235.5,155.2 237.8,158.6 240.0,162.0 242.2,165.4 244.5,168.8 246.8,172.0 249.0,174.9 251.2,177.6 253.5,179.8 255.8,181.6 258.0,182.9 260.2,183.7 262.5,184.0 264.8,183.7 267.0,182.9 269.2,181.6 271.5,179.8 273.8,177.6 276.0,174.9 278.2,172.0 280.5,168.8 282.8,165.4 285.0,162.0 287.2,158.6 289.5,155.2 291.8,152.0 294.0,149.1 296.2,146.4 298.5,144.2 300.8,142.4 303.0,141.1 305.2,140.3 307.5,140.0 309.8,140.3 312.0,141.1 314.2,142.4 316.5,144.2 318.8,146.4 321.0,149.1 323.2,152.0 325.5,155.2 327.8,158.6 330.0,162.0" fill="none" stroke="#2563eb" stroke-width="1.8"/><text x="280" y="201" font-size="11" fill="#dc2626">V=0</text><text x="60" y="136" font-size="11" fill="#2563eb">ψ ~ plane wave</text><rect x="380" y="92" width="330" height="150" rx="10" fill="#f8fafc" stroke="#e2e8f0" stroke-width="1.5"/><text x="394" y="114" font-size="13" font-weight="bold" fill="#0f766e">(b) Infinite well  (discrete E<tspan baseline-shift="sub" font-size="9">n</tspan>)</text><polyline points="470,132 470,220 630,220 630,132" fill="none" stroke="#dc2626" stroke-width="2.4"/><line x1="470" y1="196" x2="630" y2="196" stroke="#94a3b8" stroke-width="1" stroke-dasharray="3 3"/><polyline points="470.0,196.0 472.0,195.3 474.0,194.6 476.0,193.9 478.0,193.2 480.0,192.5 482.0,191.8 484.0,191.1 486.0,190.4 488.0,189.8 490.0,189.1 492.0,188.5 494.0,187.8 496.0,187.2 498.0,186.6 500.0,186.0 502.0,185.4 504.0,184.9 506.0,184.3 508.0,183.8 510.0,183.3 512.0,182.8 514.0,182.3 516.0,181.9 518.0,181.4 520.0,181.0 522.0,180.7 524.0,180.3 526.0,180.0 528.0,179.7 530.0,179.4 532.0,179.1 534.0,178.9 536.0,178.7 538.0,178.5 540.0,178.3 542.0,178.2 544.0,178.1 546.0,178.1 548.0,178.0 550.0,178.0 552.0,178.0 554.0,178.1 556.0,178.1 558.0,178.2 560.0,178.3 562.0,178.5 564.0,178.7 566.0,178.9 568.0,179.1 570.0,179.4 572.0,179.7 574.0,180.0 576.0,180.3 578.0,180.7 580.0,181.0 582.0,181.4 584.0,181.9 586.0,182.3 588.0,182.8 590.0,183.3 592.0,183.8 594.0,184.3 596.0,184.9 598.0,185.4 600.0,186.0 602.0,186.6 604.0,187.2 606.0,187.8 608.0,188.5 610.0,189.1 612.0,189.8 614.0,190.4 616.0,191.1 618.0,191.8 620.0,192.5 622.0,193.2 624.0,193.9 626.0,194.6 628.0,195.3 630.0,196.0" fill="none" stroke="#2563eb" stroke-width="1.6"/><text x="636" y="200" font-size="10.5" fill="#475569">E<tspan baseline-shift="sub" font-size="9">1</tspan></text><line x1="470" y1="166" x2="630" y2="166" stroke="#94a3b8" stroke-width="1" stroke-dasharray="3 3"/><polyline points="470.0,166.0 472.0,164.6 474.0,163.2 476.0,161.8 478.0,160.4 480.0,159.1 482.0,157.8 484.0,156.6 486.0,155.4 488.0,154.3 490.0,153.3 492.0,152.3 494.0,151.4 496.0,150.7 498.0,150.0 500.0,149.4 502.0,148.9 504.0,148.5 506.0,148.2 508.0,148.1 510.0,148.0 512.0,148.1 514.0,148.2 516.0,148.5 518.0,148.9 520.0,149.4 522.0,150.0 524.0,150.7 526.0,151.4 528.0,152.3 530.0,153.3 532.0,154.3 534.0,155.4 536.0,156.6 538.0,157.8 540.0,159.1 542.0,160.4 544.0,161.8 546.0,163.2 548.0,164.6 550.0,166.0 552.0,167.4 554.0,168.8 556.0,170.2 558.0,171.6 560.0,172.9 562.0,174.2 564.0,175.4 566.0,176.6 568.0,177.7 570.0,178.7 572.0,179.7 574.0,180.6 576.0,181.3 578.0,182.0 580.0,182.6 582.0,183.1 584.0,183.5 586.0,183.8 588.0,183.9 590.0,184.0 592.0,183.9 594.0,183.8 596.0,183.5 598.0,183.1 600.0,182.6 602.0,182.0 604.0,181.3 606.0,180.6 608.0,179.7 610.0,178.7 612.0,177.7 614.0,176.6 616.0,175.4 618.0,174.2 620.0,172.9 622.0,171.6 624.0,170.2 626.0,168.8 628.0,167.4 630.0,166.0" fill="none" stroke="#2563eb" stroke-width="1.6"/><text x="636" y="170" font-size="10.5" fill="#475569">E<tspan baseline-shift="sub" font-size="9">2</tspan></text><rect x="30" y="272" width="330" height="150" rx="10" fill="#f8fafc" stroke="#e2e8f0" stroke-width="1.5"/><text x="44" y="294" font-size="13" font-weight="bold" fill="#0f766e">(c) Step potential</text><polyline points="50,392 200,392 200,342 340,342" fill="none" stroke="#dc2626" stroke-width="2.2"/><polyline points="55.0,330.0 57.4,334.1 59.8,338.0 62.2,341.3 64.7,343.9 67.1,345.5 69.5,346.0 71.9,345.5 74.3,343.9 76.8,341.3 79.2,338.0 81.6,334.1 84.0,330.0 86.4,325.9 88.8,322.0 91.2,318.7 93.7,316.1 96.1,314.5 98.5,314.0 100.9,314.5 103.3,316.1 105.8,318.7 108.2,322.0 110.6,325.9 113.0,330.0 115.4,334.1 117.8,338.0 120.2,341.3 122.7,343.9 125.1,345.5 127.5,346.0 129.9,345.5 132.3,343.9 134.8,341.3 137.2,338.0 139.6,334.1 142.0,330.0 144.4,325.9 146.8,322.0 149.2,318.7 151.7,316.1 154.1,314.5 156.5,314.0 158.9,314.5 161.3,316.1 163.8,318.7 166.2,322.0 168.6,325.9 171.0,330.0 173.4,334.1 175.8,338.0 178.2,341.3 180.7,343.9 183.1,345.5 185.5,346.0 187.9,345.5 190.3,343.9 192.8,341.3 195.2,338.0 197.6,334.1 200.0,330.0" fill="none" stroke="#2563eb" stroke-width="1.7"/><polyline points="200.0,322.0 203.4,324.3 206.8,326.5 210.1,328.5 213.5,330.1 216.9,331.2 220.2,331.9 223.6,332.0 227.0,331.5 230.4,330.5 233.8,329.1 237.1,327.2 240.5,325.1 243.9,322.8 247.2,320.4 250.6,318.2 254.0,316.1 257.4,314.4 260.8,313.1 264.1,312.3 267.5,312.0 270.9,312.3 274.2,313.1 277.6,314.4 281.0,316.1 284.4,318.2 287.8,320.4 291.1,322.8 294.5,325.1 297.9,327.2 301.2,329.1 304.6,330.5 308.0,331.5 311.4,332.0 314.8,331.9 318.1,331.2 321.5,330.1 324.9,328.5 328.2,326.5 331.6,324.3" fill="none" stroke="#2563eb" stroke-width="1.7" stroke-dasharray="4 2"/><text x="280" y="336" font-size="11" fill="#dc2626">V<tspan baseline-shift="sub" font-size="9">0</tspan></text><text x="70" y="310" font-size="11" fill="#2563eb">partial reflection</text><rect x="380" y="272" width="330" height="150" rx="10" fill="#f8fafc" stroke="#e2e8f0" stroke-width="1.5"/><text x="394" y="294" font-size="13" font-weight="bold" fill="#0f766e">(d) Barrier → tunneling</text><polyline points="400,392 530,392 530,332 580,332 580,392 690,392" fill="none" stroke="#dc2626" stroke-width="2.2"/><polyline points="405.0,364.0 407.5,367.7 410.0,371.2 412.5,374.3 415.0,376.7 417.5,378.3 420.0,379.0 422.5,378.7 425.0,377.6 427.5,375.6 430.0,372.8 432.5,369.5 435.0,365.9 437.5,362.1 440.0,358.5 442.5,355.2 445.0,352.4 447.5,350.4 450.0,349.3 452.5,349.0 455.0,349.7 457.5,351.3 460.0,353.7 462.5,356.8 465.0,360.3 467.5,364.0 470.0,367.7 472.5,371.2 475.0,374.3 477.5,376.7 480.0,378.3 482.5,379.0 485.0,378.7 487.5,377.6 490.0,375.6 492.5,372.8 495.0,369.5 497.5,365.9 500.0,362.1 502.5,358.5 505.0,355.2 507.5,352.4 510.0,350.4 512.5,349.3 515.0,349.0 517.5,349.7 520.0,351.3 522.5,353.7 525.0,356.8 527.5,360.3" fill="none" stroke="#2563eb" stroke-width="1.7"/><polyline points="530.0,352.0 531.7,352.8 533.3,353.6 535.0,354.4 536.7,355.1 538.3,355.7 540.0,356.3 541.7,356.8 543.3,357.3 545.0,357.8 546.7,358.2 548.3,358.6 550.0,359.0 551.7,359.4 553.3,359.7 555.0,360.0 556.7,360.3 558.3,360.6 560.0,360.8 561.7,361.0 563.3,361.2 565.0,361.4 566.7,361.6 568.3,361.8 570.0,361.9 571.7,362.1 573.3,362.2 575.0,362.3 576.7,362.5 578.3,362.6" fill="none" stroke="#2563eb" stroke-width="1.7" stroke-dasharray="3 2"/><polyline points="580.0,364.0 582.3,365.4 584.7,366.6 587.0,367.7 589.3,368.5 591.7,368.9 594.0,369.0 596.3,368.6 598.7,367.9 601.0,366.9 603.3,365.7 605.7,364.3 608.0,363.0 610.3,361.7 612.7,360.5 615.0,359.7 617.3,359.1 619.7,359.0 622.0,359.2 624.3,359.9 626.7,360.8 629.0,362.0 631.3,363.3 633.7,364.7 636.0,366.0 638.3,367.2 640.7,368.1 643.0,368.8 645.3,369.0 647.7,368.9 650.0,368.3 652.3,367.5 654.7,366.3 657.0,365.0 659.3,363.7 661.7,362.3 664.0,361.1 666.3,360.1 668.7,359.4 671.0,359.0 673.3,359.1 675.7,359.5 678.0,360.3 680.3,361.4 682.7,362.6" fill="none" stroke="#2563eb" stroke-width="1.7"/><text x="410" y="316" font-size="11" fill="#2563eb">incident</text><text x="588" y="316" font-size="11" fill="#2563eb">transmitted</text></svg>