<svg viewBox="0 0 600 340" xmlns="http://www.w3.org/2000/svg" font-family="Calibri, Arial, sans-serif"><defs><marker id="ar" markerWidth="9" markerHeight="9" refX="7" refY="3" orient="auto" markerUnits="strokeWidth"><path d="M0,0 L7,3 L0,6 Z" fill="#334155"/></marker><marker id="arT" markerWidth="9" markerHeight="9" refX="7" refY="3" orient="auto" markerUnits="strokeWidth"><path d="M0,0 L7,3 L0,6 Z" fill="#0f766e"/></marker><marker id="arR" markerWidth="9" markerHeight="9" refX="7" refY="3" orient="auto" markerUnits="strokeWidth"><path d="M0,0 L7,3 L0,6 Z" fill="#dc2626"/></marker><marker id="arO" markerWidth="9" markerHeight="9" refX="7" refY="3" orient="auto" markerUnits="strokeWidth"><path d="M0,0 L7,3 L0,6 Z" fill="#b45309"/></marker><marker id="arB" markerWidth="9" markerHeight="9" refX="7" refY="3" orient="auto" markerUnits="strokeWidth"><path d="M0,0 L7,3 L0,6 Z" fill="#2563eb"/></marker><marker id="arP" markerWidth="9" markerHeight="9" refX="7" refY="3" orient="auto" markerUnits="strokeWidth"><path d="M0,0 L7,3 L0,6 Z" fill="#7c3aed"/></marker></defs><rect x="20" y="40" width="560" height="295" rx="12" fill="#ffffff" stroke="#e2e8f0" stroke-width="1.5"/><text x="300" y="66" text-anchor="middle" font-size="16" font-weight="bold" fill="#1f2a37">Donor &amp; acceptor levels</text><text x="300" y="84" text-anchor="middle" font-size="12.5" fill="#64748b">shallow dopants near the band edges; deep levels mid-gap</text><rect x="120" y="100" width="350" height="40" fill="#0d9488" fill-opacity="0.16"/><rect x="120" y="270" width="350" height="40" fill="#7c3aed" fill-opacity="0.16"/><line x1="120" y1="140" x2="470" y2="140" stroke="#0f766e" stroke-width="2"/><line x1="120" y1="270" x2="470" y2="270" stroke="#7c3aed" stroke-width="2"/><text x="476" y="144" font-size="12" fill="#0f766e">E<tspan baseline-shift="sub" font-size="9">c</tspan></text><text x="476" y="274" font-size="12" fill="#7c3aed">E<tspan baseline-shift="sub" font-size="9">v</tspan></text><text x="112" y="120" text-anchor="end" font-size="11" fill="#0f766e">CB</text><text x="112" y="292" text-anchor="end" font-size="11" fill="#7c3aed">VB</text><line x1="150" y1="158" x2="270" y2="158" stroke="#dc2626" stroke-width="1.8" stroke-dasharray="7 4"/><text x="170" y="154" text-anchor="middle" font-size="12" fill="#dc2626">+</text><text x="210" y="154" text-anchor="middle" font-size="12" fill="#dc2626">+</text><text x="250" y="154" text-anchor="middle" font-size="12" fill="#dc2626">+</text><line x1="210" y1="155" x2="210" y2="143" stroke="#dc2626" stroke-width="1.6" marker-end="url(#arR)"/><text x="210" y="174" text-anchor="middle" font-size="10.5" fill="#dc2626">E_D donor (P, As)</text><line x1="320" y1="252" x2="440" y2="252" stroke="#2563eb" stroke-width="1.8" stroke-dasharray="7 4"/><text x="340" y="256" text-anchor="middle" font-size="12" fill="#2563eb">−</text><text x="380" y="256" text-anchor="middle" font-size="12" fill="#2563eb">−</text><text x="420" y="256" text-anchor="middle" font-size="12" fill="#2563eb">−</text><line x1="380" y1="255" x2="380" y2="267" stroke="#2563eb" stroke-width="1.6" marker-end="url(#arB)"/><text x="380" y="246" text-anchor="middle" font-size="10.5" fill="#2563eb">E_A acceptor (B, Ga)</text><line x1="255.0" y1="205.0" x2="335.0" y2="205.0" stroke="#64748b" stroke-width="1.8" stroke-dasharray="3 3"/><text x="295.0" y="199.0" text-anchor="middle" font-size="10.5" fill="#475569">deep level (Au) — trap</text><text x="300" y="322" text-anchor="middle" font-size="12" fill="#475569">Shallow levels (≈45 meV) ionize at 300 K → n- or p-type; deep levels trap carriers.</text></svg>