<svg viewBox="0 0 560 330" xmlns="http://www.w3.org/2000/svg" font-family="Calibri, Arial, sans-serif"><defs><marker id="ar" markerWidth="9" markerHeight="9" refX="7" refY="3" orient="auto" markerUnits="strokeWidth"><path d="M0,0 L7,3 L0,6 Z" fill="#334155"/></marker><marker id="arT" markerWidth="9" markerHeight="9" refX="7" refY="3" orient="auto" markerUnits="strokeWidth"><path d="M0,0 L7,3 L0,6 Z" fill="#0f766e"/></marker><marker id="arR" markerWidth="9" markerHeight="9" refX="7" refY="3" orient="auto" markerUnits="strokeWidth"><path d="M0,0 L7,3 L0,6 Z" fill="#dc2626"/></marker><marker id="arB" markerWidth="9" markerHeight="9" refX="7" refY="3" orient="auto" markerUnits="strokeWidth"><path d="M0,0 L7,3 L0,6 Z" fill="#2563eb"/></marker></defs><rect x="20" y="40" width="520" height="285" rx="12" fill="#ffffff" stroke="#e2e8f0" stroke-width="1.5"/><text x="280" y="68" text-anchor="middle" font-size="16" font-weight="bold" fill="#1f2a37">Effective mass = band curvature</text><text x="280" y="86" text-anchor="middle" font-size="12.5" fill="#64748b">1/m* = (1/ħ²) d²E/dk²</text><line x1="280" y1="290" x2="280" y2="106" stroke="#334155" stroke-width="1.4" marker-end="url(#ar)"/><line x1="80" y1="290" x2="490" y2="290" stroke="#334155" stroke-width="1.4" marker-end="url(#ar)"/><text x="288" y="116" font-size="12" fill="#334155">E</text><text x="486" y="307" font-size="12" font-style="italic" fill="#334155">k</text><polyline points="210.0,125.0 211.8,132.4 213.5,139.6 215.2,146.7 217.0,153.5 218.8,160.2 220.5,166.6 222.2,172.9 224.0,179.0 225.8,184.9 227.5,190.6 229.2,196.2 231.0,201.5 232.8,206.7 234.5,211.6 236.2,216.4 238.0,221.0 239.8,225.4 241.5,229.6 243.2,233.7 245.0,237.5 246.8,241.2 248.5,244.6 250.2,247.9 252.0,251.0 253.8,253.9 255.5,256.6 257.2,259.2 259.0,261.5 260.8,263.7 262.5,265.6 264.2,267.4 266.0,269.0 267.8,270.4 269.5,271.6 271.2,272.7 273.0,273.5 274.8,274.2 276.5,274.6 278.2,274.9 280.0,275.0 281.8,274.9 283.5,274.6 285.2,274.2 287.0,273.5 288.8,272.7 290.5,271.6 292.2,270.4 294.0,269.0 295.8,267.4 297.5,265.6 299.2,263.7 301.0,261.5 302.8,259.2 304.5,256.6 306.2,253.9 308.0,251.0 309.8,247.9 311.5,244.6 313.2,241.2 315.0,237.5 316.8,233.7 318.5,229.6 320.2,225.4 322.0,221.0 323.8,216.4 325.5,211.6 327.2,206.7 329.0,201.5 330.8,196.2 332.5,190.6 334.2,184.9 336.0,179.0 337.8,172.9 339.5,166.6 341.2,160.2 343.0,153.5 344.8,146.7 346.5,139.6 348.2,132.4 350.0,125.0" fill="none" stroke="#0d9488" stroke-width="2.6"/><text x="150" y="135" font-size="12" fill="#0d9488">small m* (light)</text><polyline points="95.0,125.0 99.6,132.4 104.2,139.6 108.9,146.7 113.5,153.5 118.1,160.2 122.8,166.6 127.4,172.9 132.0,179.0 136.6,184.9 141.2,190.6 145.9,196.2 150.5,201.5 155.1,206.7 159.8,211.6 164.4,216.4 169.0,221.0 173.6,225.4 178.2,229.6 182.9,233.7 187.5,237.5 192.1,241.2 196.8,244.6 201.4,247.9 206.0,251.0 210.6,253.9 215.2,256.6 219.9,259.2 224.5,261.5 229.1,263.7 233.8,265.6 238.4,267.4 243.0,269.0 247.6,270.4 252.2,271.6 256.9,272.7 261.5,273.5 266.1,274.2 270.8,274.6 275.4,274.9 280.0,275.0 284.6,274.9 289.2,274.6 293.9,274.2 298.5,273.5 303.1,272.7 307.8,271.6 312.4,270.4 317.0,269.0 321.6,267.4 326.2,265.6 330.9,263.7 335.5,261.5 340.1,259.2 344.8,256.6 349.4,253.9 354.0,251.0 358.6,247.9 363.2,244.6 367.9,241.2 372.5,237.5 377.1,233.7 381.8,229.6 386.4,225.4 391.0,221.0 395.6,216.4 400.2,211.6 404.9,206.7 409.5,201.5 414.1,196.2 418.8,190.6 423.4,184.9 428.0,179.0 432.6,172.9 437.2,166.6 441.9,160.2 446.5,153.5 451.1,146.7 455.8,139.6 460.4,132.4 465.0,125.0" fill="none" stroke="#7c3aed" stroke-width="2.6"/><text x="360" y="260" font-size="12" fill="#7c3aed">large m* (heavy)</text><text x="280" y="318" text-anchor="middle" font-size="12" fill="#475569">Sharp band → light carrier; flat band → heavy carrier.</text></svg>