<svg viewBox="0 0 600 340" xmlns="http://www.w3.org/2000/svg" font-family="Calibri, Arial, sans-serif"><defs><marker id="ar" markerWidth="9" markerHeight="9" refX="7" refY="3" orient="auto" markerUnits="strokeWidth"><path d="M0,0 L7,3 L0,6 Z" fill="#334155"/></marker><marker id="arR" markerWidth="9" markerHeight="9" refX="7" refY="3" orient="auto" markerUnits="strokeWidth"><path d="M0,0 L7,3 L0,6 Z" fill="#dc2626"/></marker><marker id="arO" markerWidth="9" markerHeight="9" refX="7" refY="3" orient="auto" markerUnits="strokeWidth"><path d="M0,0 L7,3 L0,6 Z" fill="#b45309"/></marker><marker id="arRs" markerWidth="9" markerHeight="9" refX="2" refY="3" orient="auto" markerUnits="strokeWidth"><path d="M7,0 L0,3 L7,6 Z" fill="#b45309"/></marker></defs><rect x="20" y="40" width="560" height="295" rx="12" fill="#ffffff" stroke="#e2e8f0" stroke-width="1.5"/><text x="300" y="66" text-anchor="middle" font-size="16" font-weight="bold" fill="#1f2a37">Excitons at the absorption edge</text><text x="300" y="84" text-anchor="middle" font-size="12.5" fill="#64748b">hydrogen-like peaks below E_g: E_n = E_g − E_b/n²</text><line x1="80" y1="290" x2="548" y2="290" stroke="#334155" stroke-width="1.3" marker-end="url(#ar)"/><line x1="80" y1="290" x2="80" y2="104" stroke="#334155" stroke-width="1.3" marker-end="url(#ar)"/><text x="542" y="308" font-size="12" font-style="italic" fill="#334155">ħω</text><text x="72" y="110" text-anchor="end" font-size="12" font-style="italic" fill="#334155">α</text><line x1="276.3" y1="108" x2="276.3" y2="290" stroke="#94a3b8" stroke-width="1.2" stroke-dasharray="5 4"/><text x="276.3" y="308" text-anchor="middle" font-size="11.5" fill="#475569">E_g</text><polyline points="80.0,290.0 82.3,290.0 84.6,290.0 86.9,290.0 89.2,290.0 91.5,290.0 93.8,290.0 96.1,290.0 98.4,290.0 100.7,290.0 103.0,290.0 105.3,290.0 107.6,290.0 109.9,290.0 112.2,290.0 114.5,290.0 116.8,290.0 119.1,290.0 121.4,290.0 123.7,290.0 126.0,290.0 128.3,290.0 130.6,290.0 132.9,290.0 135.2,290.0 137.5,290.0 139.8,290.0 142.1,290.0 144.4,290.0 146.7,290.0 149.0,290.0 151.3,290.0 153.6,290.0 155.9,290.0 158.2,290.0 160.5,290.0 162.8,290.0 165.1,290.0 167.4,290.0 169.7,290.0 172.0,290.0 174.3,290.0 176.6,290.0 178.9,290.0 181.2,290.0 183.5,290.0 185.8,290.0 188.1,290.0 190.4,290.0 192.7,290.0 195.0,290.0 197.3,290.0 199.6,290.0 201.9,290.0 204.2,290.0 206.5,290.0 208.8,290.0 211.1,290.0 213.4,290.0 215.7,290.0 218.0,290.0 220.3,290.0 222.6,290.0 224.9,290.0 227.2,290.0 229.5,290.0 231.8,290.0 234.1,290.0 236.4,290.0 238.7,290.0 241.0,290.0 243.3,290.0 245.6,290.0 247.9,290.0 250.2,290.0 252.5,290.0 254.8,290.0 257.1,290.0 259.4,290.0 261.7,290.0 264.0,290.0 266.3,290.0 268.6,290.0 270.9,290.0 273.2,290.0 275.5,290.0 277.8,281.5 280.1,276.5 282.4,273.0 284.7,270.0 287.0,267.5 289.3,265.2 291.6,263.1 293.9,261.1 296.2,259.3 298.5,257.6 300.8,256.0 303.1,254.4 305.4,252.9 307.7,251.5 310.0,250.1 312.3,248.7 314.6,247.5 316.9,246.2 319.2,245.0 321.5,243.8 323.8,242.6 326.1,241.5 328.4,240.4 330.7,239.3 333.0,238.2 335.3,237.2 337.6,236.2 339.9,235.2 342.2,234.2 344.5,233.2 346.8,232.3 349.1,231.4 351.4,230.4 353.7,229.5 356.0,228.6 358.3,227.8 360.6,226.9 362.9,226.0 365.2,225.2 367.5,224.4 369.8,223.5 372.1,222.7 374.4,221.9 376.7,221.1 379.0,220.3 381.3,219.6 383.6,218.8 385.9,218.0 388.2,217.3 390.5,216.6 392.8,215.8 395.1,215.1 397.4,214.4 399.7,213.7 402.0,212.9 404.3,212.2 406.6,211.5 408.9,210.9 411.2,210.2 413.5,209.5 415.8,208.8 418.1,208.2 420.4,207.5 422.7,206.8 425.0,206.2 427.3,205.5 429.6,204.9 431.9,204.3 434.2,203.6 436.5,203.0 438.8,202.4 441.1,201.8 443.4,201.2 445.7,200.5 448.0,199.9 450.3,199.3 452.6,198.7 454.9,198.2 457.2,197.6 459.5,197.0 461.8,196.4 464.1,195.8 466.4,195.2 468.7,194.7 471.0,194.1 473.3,193.5 475.6,193.0 477.9,192.4 480.2,191.9 482.5,191.3 484.8,190.8 487.1,190.2 489.4,189.7 491.7,189.1 494.0,188.6 496.3,188.1 498.6,187.5 500.9,187.0 503.2,186.5 505.5,186.0 507.8,185.4 510.1,184.9 512.4,184.4 514.7,183.9 517.0,183.4 519.3,182.9 521.6,182.4 523.9,181.9 526.2,181.4 528.5,180.9 530.8,180.4 533.1,179.9 535.4,179.4 537.7,178.9 540.0,178.4" fill="none" stroke="#94a3b8" stroke-width="1.8" stroke-dasharray="6 4"/><polyline points="80.0,282.2 82.3,282.1 84.6,282.1 86.9,282.1 89.2,282.1 91.5,282.0 93.8,282.0 96.1,282.0 98.4,282.0 100.7,281.9 103.0,281.9 105.3,281.8 107.6,281.8 109.9,281.8 112.2,281.7 114.5,281.7 116.8,281.6 119.1,281.6 121.4,281.5 123.7,281.4 126.0,281.4 128.3,281.3 130.6,281.2 132.9,281.1 135.2,281.1 137.5,281.0 139.8,280.8 142.1,280.7 144.4,280.6 146.7,280.5 149.0,280.3 151.3,280.1 153.6,279.9 155.9,279.7 158.2,279.5 160.5,279.2 162.8,278.9 165.1,278.6 167.4,278.2 169.7,277.7 172.0,277.2 174.3,276.6 176.6,275.9 178.9,275.1 181.2,274.1 183.5,272.9 185.8,271.4 188.1,269.6 190.4,267.2 192.7,264.3 195.0,260.4 197.3,255.2 199.6,248.2 201.9,238.3 204.2,224.2 206.5,203.8 208.8,175.3 211.1,139.9 213.4,110.0 215.7,110.0 218.0,127.6 220.3,163.3 222.6,194.2 224.9,216.8 227.2,232.3 229.5,242.9 231.8,250.3 234.1,255.3 236.4,258.7 238.7,260.9 241.0,262.0 243.3,262.2 245.6,261.3 247.9,259.0 250.2,254.7 252.5,247.5 254.8,235.8 257.1,218.7 259.4,200.6 261.7,194.7 264.0,203.9 266.3,213.4 268.6,218.5 270.9,229.2 273.2,244.4 275.5,255.9 277.8,193.5 280.1,195.2 282.4,196.2 284.7,196.7 287.0,196.8 289.3,196.6 291.6,196.3 293.9,195.9 296.2,195.4 298.5,194.9 300.8,194.4 303.1,193.8 305.4,193.3 307.7,192.7 310.0,192.1 312.3,191.5 314.6,191.0 316.9,190.4 319.2,189.8 321.5,189.3 323.8,188.7 326.1,188.1 328.4,187.6 330.7,187.0 333.0,186.5 335.3,186.0 337.6,185.5 339.9,184.9 342.2,184.4 344.5,183.9 346.8,183.4 349.1,182.9 351.4,182.4 353.7,181.9 356.0,181.5 358.3,181.0 360.6,180.5 362.9,180.1 365.2,179.6 367.5,179.1 369.8,178.7 372.1,178.2 374.4,177.8 376.7,177.7 379.0,177.8 381.3,177.8 383.6,177.8 385.9,177.8 388.2,177.8 390.5,177.9 392.8,177.9 395.1,177.9 397.4,177.9 399.7,177.9 402.0,177.9 404.3,177.9 406.6,178.0 408.9,178.0 411.2,178.0 413.5,178.0 415.8,178.0 418.1,178.0 420.4,178.0 422.7,178.0 425.0,178.0 427.3,178.1 429.6,178.1 431.9,178.1 434.2,178.1 436.5,178.1 438.8,178.1 441.1,178.1 443.4,178.1 445.7,178.1 448.0,178.1 450.3,178.1 452.6,178.1 454.9,178.1 457.2,178.1 459.5,178.1 461.8,178.1 464.1,178.2 466.4,178.2 468.7,178.2 471.0,178.2 473.3,178.2 475.6,178.2 477.9,178.2 480.2,178.2 482.5,178.2 484.8,178.2 487.1,178.2 489.4,178.2 491.7,178.2 494.0,178.2 496.3,178.2 498.6,178.2 500.9,178.2 503.2,178.2 505.5,178.2 507.8,178.2 510.1,178.2 512.4,178.2 514.7,178.2 517.0,178.2 519.3,178.2 521.6,178.2 523.9,178.2 526.2,178.2 528.5,178.2 530.8,178.3 533.1,178.3 535.4,178.3 537.7,178.3 540.0,178.3 542.3,178.3 544.6,178.3 546.9,178.3 549.2,178.3 551.5,178.3 553.8,178.3 556.1,178.3 558.4,178.3 560.7,178.3 563.0,178.3 565.3,178.3 567.6,178.3 569.9,178.3 572.2,178.3 574.5,178.3 576.8,178.3 579.1,178.3 581.4,178.3 583.7,178.3 586.0,178.3 588.3,178.3 590.6,178.3 592.9,178.3 595.2,178.3 597.5,178.3 599.8,178.3 602.1,178.3 604.4,178.3 606.7,178.3 609.0,178.3 611.3,178.3 613.6,178.3 615.9,178.3 618.2,178.3 620.5,178.3 622.8,178.3 625.1,178.3 627.4,178.3 629.7,178.3 632.0,178.3 634.3,178.3 636.6,178.3 638.9,178.3 641.2,178.3 643.5,178.3 645.8,178.3 648.1,178.3 650.4,178.3 652.7,178.3 655.0,178.3 657.3,178.3 659.6,178.3 661.9,178.3 664.2,178.3 666.5,178.3 668.8,178.3 671.1,178.3 673.4,178.3 675.7,178.3 678.0,178.3 680.3,178.3 682.6,178.3 684.9,178.3 687.2,178.3 689.5,178.3 691.8,178.3 694.1,178.3 696.4,178.3 698.7,178.3 701.0,178.3 703.3,178.3 705.6,178.3 707.9,178.3 710.2,178.3 712.5,178.3 714.8,178.3 717.1,178.3 719.4,178.3 721.7,178.3 724.0,178.3 726.3,178.3 728.6,178.3 730.9,178.3 733.2,178.3 735.5,178.3 737.8,178.3 740.1,178.3 742.4,178.3 744.7,178.3 747.0,178.4 749.3,178.4 751.6,178.4 753.9,178.4 756.2,178.4 758.5,178.4 760.8,178.4 763.1,178.4 765.4,178.4 767.7,178.4 770.0,178.4 772.3,178.4 774.6,178.4 776.9,178.4 779.2,178.4 781.5,178.4 783.8,178.4 786.1,178.4 788.4,178.4 790.7,178.4 793.0,178.4 795.3,178.4 797.6,178.4 799.9,178.4 802.2,178.4 804.5,178.4 806.8,178.4 809.1,178.4 811.4,178.4 813.7,178.4 816.0,178.4 818.3,178.4 820.6,178.4 822.9,178.4 825.2,178.4 827.5,178.4 829.8,178.4 832.1,178.4 834.4,178.4 836.7,178.4 839.0,178.4 841.3,178.4 843.6,178.4 845.9,178.4 848.2,178.4 850.5,178.4 852.8,178.4 855.1,178.4 857.4,178.4 859.7,178.4 862.0,178.4 864.3,178.4 866.6,178.4 868.9,178.4 871.2,178.4 873.5,178.4 875.8,178.4 878.1,178.4 880.4,178.4 882.7,178.4 885.0,178.4 887.3,178.4 889.6,178.4 891.9,178.4 894.2,178.4 896.5,178.4 898.8,178.4 901.1,178.4 903.4,178.4 905.7,178.4 908.0,178.4 910.3,178.4 912.6,178.4 914.9,178.4 917.2,178.4 919.5,178.4 921.8,178.4 924.1,178.4 926.4,178.4 928.7,178.4 931.0,178.4 933.3,178.4 935.6,178.4 937.9,178.4 940.2,178.4 942.5,178.4 944.8,178.4 947.1,178.4 949.4,178.4 951.7,178.4 954.0,178.4 956.3,178.4 958.6,178.4 960.9,178.4 963.2,178.4 965.5,178.4 967.8,178.4 970.1,178.4 972.4,178.4 974.7,178.4 977.0,178.4 979.3,178.4 981.6,178.4 983.9,178.4 986.2,178.4 988.5,178.4 990.8,178.4 993.1,178.4 995.4,178.4 997.7,178.4 1000.0,178.4" fill="none" stroke="#0d9488" stroke-width="2.4"/><line x1="214.9" y1="146.0" x2="276.3" y2="146.0" stroke="#dc2626" stroke-width="1.4" marker-start="url(#arRs)" marker-end="url(#arR)"/><text x="245.6" y="140.0" text-anchor="middle" font-size="10.5" fill="#dc2626">E_b</text><text x="214.9" y="104.0" text-anchor="middle" font-size="10.5" fill="#0d9488">exciton peaks (low T)</text><text x="478.7" y="225.2" text-anchor="middle" font-size="10.5" fill="#94a3b8">free-carrier edge √</text><text x="300" y="322" text-anchor="middle" font-size="12" fill="#475569">At 300 K, kT >> E_b ionizes the excitons → the sharp peaks wash out.</text></svg>