<svg viewBox="0 0 600 340" xmlns="http://www.w3.org/2000/svg" font-family="Calibri, Arial, sans-serif"><defs><marker id="ar" markerWidth="9" markerHeight="9" refX="7" refY="3" orient="auto" markerUnits="strokeWidth"><path d="M0,0 L7,3 L0,6 Z" fill="#334155"/></marker><marker id="arT" markerWidth="9" markerHeight="9" refX="7" refY="3" orient="auto" markerUnits="strokeWidth"><path d="M0,0 L7,3 L0,6 Z" fill="#0f766e"/></marker><marker id="arR" markerWidth="9" markerHeight="9" refX="7" refY="3" orient="auto" markerUnits="strokeWidth"><path d="M0,0 L7,3 L0,6 Z" fill="#dc2626"/></marker><marker id="arB" markerWidth="9" markerHeight="9" refX="7" refY="3" orient="auto" markerUnits="strokeWidth"><path d="M0,0 L7,3 L0,6 Z" fill="#2563eb"/></marker></defs><rect x="20" y="40" width="560" height="295" rx="12" fill="#ffffff" stroke="#e2e8f0" stroke-width="1.5"/><text x="300" y="68" text-anchor="middle" font-size="16" font-weight="bold" fill="#1f2a37">Fermi–Dirac distribution vs temperature</text><text x="300" y="86" text-anchor="middle" font-size="12.5" fill="#64748b">f(E)=1/(1+exp((E−E_F)/kT))</text><line x1="80" y1="300" x2="548" y2="300" stroke="#334155" stroke-width="1.3" marker-end="url(#ar)"/><line x1="80" y1="300" x2="80" y2="104" stroke="#334155" stroke-width="1.3" marker-end="url(#ar)"/><text x="544" y="318" font-size="12" font-style="italic" fill="#334155">E</text><text x="72" y="110" text-anchor="end" font-size="12" font-style="italic" fill="#334155">f</text><text x="72" y="114" text-anchor="end" font-size="10.5" fill="#64748b">1</text><line x1="310.0" y1="108" x2="310.0" y2="300" stroke="#94a3b8" stroke-width="1.2" stroke-dasharray="5 4"/><text x="310.0" y="318" text-anchor="middle" font-size="11.5" fill="#475569">E_F</text><circle cx="310.0" cy="205.0" r="3" fill="#475569"/><polyline points="196.4,110.0 197.5,110.0 198.7,110.0 199.8,110.0 200.9,110.0 202.1,110.0 203.2,110.0 204.3,110.0 205.5,110.0 206.6,110.0 207.7,110.0 208.9,110.0 210.0,110.0 211.2,110.0 212.3,110.0 213.4,110.0 214.6,110.0 215.7,110.0 216.8,110.0 218.0,110.0 219.1,110.0 220.2,110.0 221.4,110.0 222.5,110.0 223.6,110.0 224.8,110.0 225.9,110.0 227.1,110.0 228.2,110.0 229.3,110.0 230.5,110.0 231.6,110.0 232.7,110.0 233.9,110.0 235.0,110.0 236.1,110.0 237.3,110.0 238.4,110.0 239.6,110.0 240.7,110.0 241.8,110.0 243.0,110.0 244.1,110.0 245.2,110.0 246.4,110.0 247.5,110.0 248.6,110.0 249.8,110.0 250.9,110.0 252.1,110.0 253.2,110.0 254.3,110.0 255.5,110.0 256.6,110.0 257.7,110.0 258.9,110.0 260.0,110.0 261.1,110.0 262.3,110.0 263.4,110.0 264.6,110.0 265.7,110.0 266.8,110.0 268.0,110.0 269.1,110.0 270.2,110.0 271.4,110.0 272.5,110.0 273.6,110.0 274.8,110.0 275.9,110.0 277.1,110.0 278.2,110.0 279.3,110.0 280.5,110.0 281.6,110.0 282.7,110.0 283.9,110.0 285.0,110.0 286.1,110.0 287.3,110.0 288.4,110.0 289.5,110.0 290.7,110.0 291.8,110.0 293.0,110.0 294.1,110.0 295.2,110.0 296.4,110.0 297.5,110.0 298.6,110.0 299.8,110.0 300.9,110.0 302.0,110.0 303.2,110.0 304.3,110.0 305.5,110.0 306.6,110.0 307.7,110.0 308.9,110.0 310.0,205.0 311.1,300.0 312.3,300.0 313.4,300.0 314.5,300.0 315.7,300.0 316.8,300.0 318.0,300.0 319.1,300.0 320.2,300.0 321.4,300.0 322.5,300.0 323.6,300.0 324.8,300.0 325.9,300.0 327.0,300.0 328.2,300.0 329.3,300.0 330.5,300.0 331.6,300.0 332.7,300.0 333.9,300.0 335.0,300.0 336.1,300.0 337.3,300.0 338.4,300.0 339.5,300.0 340.7,300.0 341.8,300.0 342.9,300.0 344.1,300.0 345.2,300.0 346.4,300.0 347.5,300.0 348.6,300.0 349.8,300.0 350.9,300.0 352.0,300.0 353.2,300.0 354.3,300.0 355.4,300.0 356.6,300.0 357.7,300.0 358.9,300.0 360.0,300.0 361.1,300.0 362.3,300.0 363.4,300.0 364.5,300.0 365.7,300.0 366.8,300.0 367.9,300.0 369.1,300.0 370.2,300.0 371.4,300.0 372.5,300.0 373.6,300.0 374.8,300.0 375.9,300.0 377.0,300.0 378.2,300.0 379.3,300.0 380.4,300.0 381.6,300.0 382.7,300.0 383.9,300.0 385.0,300.0 386.1,300.0 387.3,300.0 388.4,300.0 389.5,300.0 390.7,300.0 391.8,300.0 392.9,300.0 394.1,300.0 395.2,300.0 396.4,300.0 397.5,300.0 398.6,300.0 399.8,300.0 400.9,300.0 402.0,300.0 403.2,300.0 404.3,300.0 405.4,300.0 406.6,300.0 407.7,300.0 408.8,300.0 410.0,300.0 411.1,300.0 412.3,300.0 413.4,300.0 414.5,300.0 415.7,300.0 416.8,300.0 417.9,300.0 419.1,300.0 420.2,300.0 421.3,300.0 422.5,300.0 423.6,300.0" fill="none" stroke="#1f2a37" stroke-width="2.3"/><polyline points="196.4,110.0 197.5,110.0 198.7,110.0 199.8,110.0 200.9,110.0 202.1,110.0 203.2,110.0 204.3,110.0 205.5,110.0 206.6,110.0 207.7,110.0 208.9,110.0 210.0,110.0 211.2,110.0 212.3,110.0 213.4,110.0 214.6,110.0 215.7,110.0 216.8,110.0 218.0,110.0 219.1,110.0 220.2,110.0 221.4,110.0 222.5,110.0 223.6,110.0 224.8,110.0 225.9,110.0 227.1,110.0 228.2,110.0 229.3,110.0 230.5,110.0 231.6,110.0 232.7,110.0 233.9,110.0 235.0,110.0 236.1,110.0 237.3,110.0 238.4,110.0 239.6,110.0 240.7,110.0 241.8,110.0 243.0,110.0 244.1,110.0 245.2,110.1 246.4,110.1 247.5,110.1 248.6,110.1 249.8,110.1 250.9,110.1 252.1,110.1 253.2,110.1 254.3,110.2 255.5,110.2 256.6,110.2 257.7,110.2 258.9,110.3 260.0,110.3 261.1,110.4 262.3,110.4 263.4,110.5 264.6,110.6 265.7,110.7 266.8,110.8 268.0,110.9 269.1,111.0 270.2,111.2 271.4,111.4 272.5,111.6 273.6,111.8 274.8,112.1 275.9,112.5 277.1,112.8 278.2,113.3 279.3,113.8 280.5,114.3 281.6,115.0 282.7,115.8 283.9,116.6 285.0,117.6 286.1,118.7 287.3,120.0 288.4,121.5 289.5,123.1 290.7,125.0 291.8,127.1 293.0,129.5 294.1,132.2 295.2,135.2 296.4,138.5 297.5,142.2 298.6,146.3 299.8,150.7 300.9,155.5 302.0,160.7 303.2,166.2 304.3,172.1 305.5,178.3 306.6,184.7 307.7,191.4 308.9,198.2 310.0,205.0 311.1,211.8 312.3,218.6 313.4,225.3 314.5,231.7 315.7,237.9 316.8,243.8 318.0,249.3 319.1,254.5 320.2,259.3 321.4,263.7 322.5,267.8 323.6,271.5 324.8,274.8 325.9,277.8 327.0,280.5 328.2,282.9 329.3,285.0 330.5,286.9 331.6,288.5 332.7,290.0 333.9,291.3 335.0,292.4 336.1,293.4 337.3,294.2 338.4,295.0 339.5,295.7 340.7,296.2 341.8,296.7 342.9,297.2 344.1,297.5 345.2,297.9 346.4,298.2 347.5,298.4 348.6,298.6 349.8,298.8 350.9,299.0 352.0,299.1 353.2,299.2 354.3,299.3 355.4,299.4 356.6,299.5 357.7,299.6 358.9,299.6 360.0,299.7 361.1,299.7 362.3,299.8 363.4,299.8 364.5,299.8 365.7,299.8 366.8,299.9 367.9,299.9 369.1,299.9 370.2,299.9 371.4,299.9 372.5,299.9 373.6,299.9 374.8,299.9 375.9,300.0 377.0,300.0 378.2,300.0 379.3,300.0 380.4,300.0 381.6,300.0 382.7,300.0 383.9,300.0 385.0,300.0 386.1,300.0 387.3,300.0 388.4,300.0 389.5,300.0 390.7,300.0 391.8,300.0 392.9,300.0 394.1,300.0 395.2,300.0 396.4,300.0 397.5,300.0 398.6,300.0 399.8,300.0 400.9,300.0 402.0,300.0 403.2,300.0 404.3,300.0 405.4,300.0 406.6,300.0 407.7,300.0 408.8,300.0 410.0,300.0 411.1,300.0 412.3,300.0 413.4,300.0 414.5,300.0 415.7,300.0 416.8,300.0 417.9,300.0 419.1,300.0 420.2,300.0 421.3,300.0 422.5,300.0 423.6,300.0" fill="none" stroke="#0d9488" stroke-width="2.3"/><polyline points="196.4,110.6 197.5,110.6 198.7,110.7 199.8,110.7 200.9,110.7 202.1,110.8 203.2,110.8 204.3,110.9 205.5,110.9 206.6,111.0 207.7,111.0 208.9,111.1 210.0,111.2 211.2,111.2 212.3,111.3 213.4,111.4 214.6,111.5 215.7,111.6 216.8,111.6 218.0,111.7 219.1,111.8 220.2,112.0 221.4,112.1 222.5,112.2 223.6,112.3 224.8,112.5 225.9,112.6 227.1,112.8 228.2,112.9 229.3,113.1 230.5,113.3 231.6,113.5 232.7,113.7 233.9,113.9 235.0,114.1 236.1,114.3 237.3,114.6 238.4,114.9 239.6,115.1 240.7,115.4 241.8,115.8 243.0,116.1 244.1,116.4 245.2,116.8 246.4,117.2 247.5,117.6 248.6,118.0 249.8,118.5 250.9,119.0 252.1,119.5 253.2,120.0 254.3,120.6 255.5,121.2 256.6,121.8 257.7,122.4 258.9,123.1 260.0,123.9 261.1,124.6 262.3,125.4 263.4,126.3 264.6,127.1 265.7,128.1 266.8,129.0 268.0,130.0 269.1,131.1 270.2,132.2 271.4,133.4 272.5,134.6 273.6,135.8 274.8,137.2 275.9,138.5 277.1,140.0 278.2,141.4 279.3,143.0 280.5,144.6 281.6,146.3 282.7,148.0 283.9,149.8 285.0,151.6 286.1,153.5 287.3,155.5 288.4,157.5 289.5,159.6 290.7,161.8 291.8,164.0 293.0,166.2 294.1,168.5 295.2,170.9 296.4,173.3 297.5,175.8 298.6,178.3 299.8,180.8 300.9,183.4 302.0,186.0 303.2,188.7 304.3,191.4 305.5,194.1 306.6,196.8 307.7,199.5 308.9,202.3 310.0,205.0 311.1,207.7 312.3,210.5 313.4,213.2 314.5,215.9 315.7,218.6 316.8,221.3 318.0,224.0 319.1,226.6 320.2,229.2 321.4,231.7 322.5,234.2 323.6,236.7 324.8,239.1 325.9,241.5 327.0,243.8 328.2,246.0 329.3,248.2 330.5,250.4 331.6,252.5 332.7,254.5 333.9,256.5 335.0,258.4 336.1,260.2 337.3,262.0 338.4,263.7 339.5,265.4 340.7,267.0 341.8,268.6 342.9,270.0 344.1,271.5 345.2,272.8 346.4,274.2 347.5,275.4 348.6,276.6 349.8,277.8 350.9,278.9 352.0,280.0 353.2,281.0 354.3,281.9 355.4,282.9 356.6,283.7 357.7,284.6 358.9,285.4 360.0,286.1 361.1,286.9 362.3,287.6 363.4,288.2 364.5,288.8 365.7,289.4 366.8,290.0 367.9,290.5 369.1,291.0 370.2,291.5 371.4,292.0 372.5,292.4 373.6,292.8 374.8,293.2 375.9,293.6 377.0,293.9 378.2,294.2 379.3,294.6 380.4,294.9 381.6,295.1 382.7,295.4 383.9,295.7 385.0,295.9 386.1,296.1 387.3,296.3 388.4,296.5 389.5,296.7 390.7,296.9 391.8,297.1 392.9,297.2 394.1,297.4 395.2,297.5 396.4,297.7 397.5,297.8 398.6,297.9 399.8,298.0 400.9,298.2 402.0,298.3 403.2,298.4 404.3,298.4 405.4,298.5 406.6,298.6 407.7,298.7 408.8,298.8 410.0,298.8 411.1,298.9 412.3,299.0 413.4,299.0 414.5,299.1 415.7,299.1 416.8,299.2 417.9,299.2 419.1,299.3 420.2,299.3 421.3,299.3 422.5,299.4 423.6,299.4" fill="none" stroke="#dc2626" stroke-width="2.3"/><line x1="390" y1="130" x2="412" y2="130" stroke="#1f2a37" stroke-width="2.6"/><text x="418" y="134" font-size="11" fill="#475569">T = 0 (step)</text><line x1="390" y1="148" x2="412" y2="148" stroke="#0d9488" stroke-width="2.6"/><text x="418" y="152" font-size="11" fill="#475569">low T</text><line x1="390" y1="166" x2="412" y2="166" stroke="#dc2626" stroke-width="2.6"/><text x="418" y="170" font-size="11" fill="#475569">high T</text><text x="300" y="328" text-anchor="middle" font-size="12" fill="#475569">At E_F, f = 1/2; the step softens as temperature rises.</text></svg>