<svg viewBox="0 0 900 340" xmlns="http://www.w3.org/2000/svg" font-family="Calibri, Arial, sans-serif"><defs><marker id="ar" markerWidth="9" markerHeight="9" refX="7" refY="3" orient="auto" markerUnits="strokeWidth"><path d="M0,0 L7,3 L0,6 Z" fill="#334155"/></marker><marker id="arT" markerWidth="9" markerHeight="9" refX="7" refY="3" orient="auto" markerUnits="strokeWidth"><path d="M0,0 L7,3 L0,6 Z" fill="#0f766e"/></marker><marker id="arR" markerWidth="9" markerHeight="9" refX="7" refY="3" orient="auto" markerUnits="strokeWidth"><path d="M0,0 L7,3 L0,6 Z" fill="#dc2626"/></marker><marker id="arO" markerWidth="9" markerHeight="9" refX="7" refY="3" orient="auto" markerUnits="strokeWidth"><path d="M0,0 L7,3 L0,6 Z" fill="#b45309"/></marker><marker id="arB" markerWidth="9" markerHeight="9" refX="7" refY="3" orient="auto" markerUnits="strokeWidth"><path d="M0,0 L7,3 L0,6 Z" fill="#2563eb"/></marker><marker id="arP" markerWidth="9" markerHeight="9" refX="7" refY="3" orient="auto" markerUnits="strokeWidth"><path d="M0,0 L7,3 L0,6 Z" fill="#7c3aed"/></marker></defs><text x="450" y="32" text-anchor="middle" font-size="16" font-weight="bold" fill="#1f2a37">Fermi level: doping and temperature</text><rect x="20" y="48" width="420" height="278" rx="12" fill="#ffffff" stroke="#e2e8f0" stroke-width="1.5"/><text x="230" y="72" text-anchor="middle" font-size="12.5" fill="#64748b">doping moves E_F toward the majority band</text><rect x="80" y="92" width="280" height="18" fill="#0d9488" fill-opacity="0.16"/><rect x="80" y="270" width="280" height="28" fill="#7c3aed" fill-opacity="0.16"/><line x1="80" y1="110" x2="360" y2="110" stroke="#0f766e" stroke-width="2"/><line x1="80" y1="270" x2="360" y2="270" stroke="#7c3aed" stroke-width="2"/><text x="364" y="114" font-size="11.5" fill="#0f766e">E<tspan baseline-shift="sub" font-size="9">c</tspan></text><text x="364" y="274" font-size="11.5" fill="#7c3aed">E<tspan baseline-shift="sub" font-size="9">v</tspan></text><line x1="80" y1="190.0" x2="360" y2="190.0" stroke="#94a3b8" stroke-width="1.2" stroke-dasharray="5 4"/><text x="364" y="194.0" font-size="10.5" fill="#94a3b8">E<tspan baseline-shift="sub" font-size="9">Fi</tspan></text><line x1="100" y1="132" x2="210" y2="132" stroke="#dc2626" stroke-width="2.2"/><text x="155" y="126" text-anchor="middle" font-size="10.5" fill="#dc2626">E_F (n-type)</text><line x1="120" y1="187.0" x2="120" y2="129" stroke="#dc2626" stroke-width="1.4" marker-end="url(#arR)"/><line x1="230" y1="248" x2="340" y2="248" stroke="#2563eb" stroke-width="2.2"/><text x="285" y="244" text-anchor="middle" font-size="10.5" fill="#2563eb">E_F (p-type)</text><line x1="250" y1="193.0" x2="250" y2="251" stroke="#2563eb" stroke-width="1.4" marker-end="url(#arB)"/><rect x="460" y="48" width="420" height="278" rx="12" fill="#ffffff" stroke="#e2e8f0" stroke-width="1.5"/><text x="670" y="72" text-anchor="middle" font-size="12.5" fill="#64748b">carrier density vs 1000/T (n-type)</text><line x1="520" y1="290" x2="828" y2="290" stroke="#334155" stroke-width="1.3" marker-end="url(#ar)"/><line x1="520" y1="290" x2="520" y2="94" stroke="#334155" stroke-width="1.3" marker-end="url(#ar)"/><text x="822" y="308" font-size="11" fill="#334155">1000/T</text><text x="514" y="100" text-anchor="end" font-size="11" fill="#334155">log n</text><polyline points="520.0,107.8 521.2,113.6 522.5,119.3 523.8,124.9 525.0,130.5 526.2,135.9 527.5,141.2 528.8,146.3 530.0,151.0 531.2,155.3 532.5,158.8 533.8,161.4 535.0,162.9 536.2,163.6 537.5,163.9 538.8,164.0 540.0,164.1 541.2,164.1 542.5,164.1 543.8,164.1 545.0,164.1 546.2,164.1 547.5,164.1 548.8,164.1 550.0,164.1 551.2,164.1 552.5,164.1 553.8,164.1 555.0,164.1 556.2,164.1 557.5,164.1 558.8,164.1 560.0,164.1 561.2,164.1 562.5,164.1 563.8,164.1 565.0,164.1 566.2,164.1 567.5,164.1 568.8,164.1 570.0,164.1 571.2,164.1 572.5,164.1 573.8,164.1 575.0,164.1 576.2,164.1 577.5,164.1 578.8,164.1 580.0,164.1 581.2,164.1 582.5,164.1 583.8,164.1 585.0,164.1 586.2,164.1 587.5,164.1 588.8,164.1 590.0,164.1 591.2,164.1 592.5,164.1 593.8,164.1 595.0,164.1 596.2,164.1 597.5,164.1 598.8,164.1 600.0,164.1 601.2,164.1 602.5,164.1 603.8,164.1 605.0,164.1 606.2,164.1 607.5,164.1 608.8,164.1 610.0,164.1 611.2,164.1 612.5,164.1 613.8,164.1 615.0,164.1 616.2,164.1 617.5,164.1 618.8,164.1 620.0,164.1 621.2,164.1 622.5,164.1 623.8,164.1 625.0,164.1 626.2,164.1 627.5,164.1 628.8,164.1 630.0,164.2 631.2,164.2 632.5,164.2 633.8,164.2 635.0,164.2 636.2,164.2 637.5,164.2 638.8,164.2 640.0,164.2 641.2,164.2 642.5,164.2 643.8,164.2 645.0,164.2 646.2,164.2 647.5,164.2 648.8,164.2 650.0,164.2 651.2,164.2 652.5,164.2 653.8,164.2 655.0,164.2 656.2,164.2 657.5,164.3 658.8,164.3 660.0,164.3 661.2,164.3 662.5,164.3 663.8,164.3 665.0,164.3 666.2,164.3 667.5,164.3 668.8,164.3 670.0,164.4 671.2,164.4 672.5,164.4 673.8,164.4 675.0,164.4 676.2,164.4 677.5,164.4 678.8,164.4 680.0,164.5 681.2,164.5 682.5,164.5 683.8,164.5 685.0,164.5 686.2,164.6 687.5,164.6 688.8,164.6 690.0,164.6 691.2,164.7 692.5,164.7 693.8,164.7 695.0,164.7 696.2,164.8 697.5,164.8 698.8,164.8 700.0,164.9 701.2,164.9 702.5,164.9 703.8,165.0 705.0,165.0 706.2,165.0 707.5,165.1 708.8,165.1 710.0,165.2 711.2,165.2 712.5,165.3 713.8,165.3 715.0,165.4 716.2,165.4 717.5,165.5 718.8,165.6 720.0,165.6 721.2,165.7 722.5,165.8 723.8,165.8 725.0,165.9 726.2,166.0 727.5,166.1 728.8,166.1 730.0,166.2 731.2,166.3 732.5,166.4 733.8,166.5 735.0,166.6 736.2,166.7 737.5,166.8 738.8,166.9 740.0,167.0 741.2,167.1 742.5,167.3 743.8,167.4 745.0,167.5 746.2,167.7 747.5,167.8 748.8,167.9 750.0,168.1 751.2,168.2 752.5,168.4 753.8,168.5 755.0,168.7 756.2,168.9 757.5,169.0 758.8,169.2 760.0,169.4 761.2,169.6 762.5,169.8 763.8,170.0 765.0,170.2 766.2,170.4 767.5,170.6 768.8,170.8 770.0,171.0 771.2,171.2 772.5,171.5 773.8,171.7 775.0,171.9 776.2,172.2 777.5,172.4 778.8,172.7 780.0,172.9 781.2,173.2 782.5,173.5 783.8,173.7 785.0,174.0 786.2,174.3 787.5,174.6 788.8,174.9 790.0,175.2 791.2,175.5 792.5,175.8 793.8,176.1 795.0,176.4 796.2,176.7 797.5,177.0 798.8,177.3 800.0,177.6 801.2,178.0 802.5,178.3 803.8,178.6 805.0,179.0 806.2,179.3 807.5,179.7 808.8,180.0 810.0,180.4 811.2,180.7 812.5,181.1 813.8,181.4 815.0,181.8 816.2,182.2 817.5,182.5 818.8,182.9 820.0,183.3" fill="none" stroke="#0d9488" stroke-width="2.6"/><line x1="555.3" y1="100" x2="555.3" y2="290" stroke="#cbd5e1" stroke-width="1" stroke-dasharray="4 4"/><line x1="714.1" y1="100" x2="714.1" y2="290" stroke="#cbd5e1" stroke-width="1" stroke-dasharray="4 4"/><text x="536" y="126" text-anchor="middle" font-size="9.5" fill="#dc2626">intrinsic</text><text x="626" y="150" text-anchor="middle" font-size="9.5" fill="#0f766e">extrinsic (n≈N_D)</text><text x="776" y="209" text-anchor="middle" font-size="9.5" fill="#2563eb">freeze-out</text><text x="450" y="320" text-anchor="middle" font-size="12" fill="#475569">Left: E_F rises toward E_c (n) or falls toward E_v (p).   Right: freeze-out → extrinsic plateau → intrinsic rise.</text></svg>