<svg viewBox="0 0 600 340" xmlns="http://www.w3.org/2000/svg" font-family="Calibri, Arial, sans-serif"><defs><marker id="ar" markerWidth="9" markerHeight="9" refX="7" refY="3" orient="auto" markerUnits="strokeWidth"><path d="M0,0 L7,3 L0,6 Z" fill="#334155"/></marker><marker id="arT" markerWidth="9" markerHeight="9" refX="7" refY="3" orient="auto" markerUnits="strokeWidth"><path d="M0,0 L7,3 L0,6 Z" fill="#0f766e"/></marker><marker id="arR" markerWidth="9" markerHeight="9" refX="7" refY="3" orient="auto" markerUnits="strokeWidth"><path d="M0,0 L7,3 L0,6 Z" fill="#dc2626"/></marker><marker id="arB" markerWidth="9" markerHeight="9" refX="7" refY="3" orient="auto" markerUnits="strokeWidth"><path d="M0,0 L7,3 L0,6 Z" fill="#2563eb"/></marker></defs><rect x="20" y="40" width="560" height="295" rx="12" fill="#ffffff" stroke="#e2e8f0" stroke-width="1.5"/><text x="300" y="68" text-anchor="middle" font-size="16" font-weight="bold" fill="#1f2a37">The Hall effect</text><text x="300" y="86" text-anchor="middle" font-size="12.5" fill="#64748b">B deflects carriers → transverse Hall voltage</text><rect x="150" y="150" width="300" height="110" rx="4" fill="#14b8a6" fill-opacity="0.10" stroke="#334155" stroke-width="1.8"/><line x1="95" y1="205.0" x2="146" y2="205.0" stroke="#2563eb" stroke-width="2.6" marker-end="url(#arB)"/><text x="92" y="197.0" font-size="12" fill="#2563eb">I (J_x)</text><line x1="454" y1="205.0" x2="500" y2="205.0" stroke="#2563eb" stroke-width="2.6" marker-end="url(#arB)"/><circle cx="205" cy="205.0" r="9" fill="none" stroke="#7c3aed" stroke-width="1.6"/><circle cx="205" cy="205.0" r="2.2" fill="#7c3aed"/><circle cx="395" cy="205.0" r="9" fill="none" stroke="#7c3aed" stroke-width="1.6"/><circle cx="395" cy="205.0" r="2.2" fill="#7c3aed"/><text x="300" y="126" text-anchor="middle" font-size="11.5" fill="#7c3aed">B field out of plane (toward viewer)</text><text x="300.0" y="144" text-anchor="middle" font-size="15" font-weight="bold" fill="#dc2626">− − − − −</text><text x="300.0" y="276" text-anchor="middle" font-size="15" font-weight="bold" fill="#2563eb">+ + + + +</text><line x1="300.0" y1="162" x2="300.0" y2="248" stroke="#dc2626" stroke-width="2" marker-end="url(#arR)"/><text x="308.0" y="209.0" font-size="12" fill="#dc2626">E_y (V_H)</text><text x="300" y="322" text-anchor="middle" font-size="12" fill="#475569">Sign of R_H gives carrier type (n/p); magnitude gives concentration.</text></svg>