<svg viewBox="0 0 560 330" xmlns="http://www.w3.org/2000/svg" font-family="Calibri, Arial, sans-serif"><defs><marker id="ar" markerWidth="9" markerHeight="9" refX="7" refY="3" orient="auto" markerUnits="strokeWidth"><path d="M0,0 L7,3 L0,6 Z" fill="#334155"/></marker><marker id="arT" markerWidth="9" markerHeight="9" refX="7" refY="3" orient="auto" markerUnits="strokeWidth"><path d="M0,0 L7,3 L0,6 Z" fill="#0f766e"/></marker><marker id="arR" markerWidth="9" markerHeight="9" refX="7" refY="3" orient="auto" markerUnits="strokeWidth"><path d="M0,0 L7,3 L0,6 Z" fill="#dc2626"/></marker><marker id="arB" markerWidth="9" markerHeight="9" refX="7" refY="3" orient="auto" markerUnits="strokeWidth"><path d="M0,0 L7,3 L0,6 Z" fill="#2563eb"/></marker></defs><rect x="20" y="40" width="520" height="285" rx="12" fill="#ffffff" stroke="#e2e8f0" stroke-width="1.5"/><text x="280" y="68" text-anchor="middle" font-size="16" font-weight="bold" fill="#1f2a37">Defining the hole</text><text x="280" y="86" text-anchor="middle" font-size="12.5" fill="#64748b">a missing electron in a nearly-full band</text><polyline points="100.0,240.0 104.5,235.6 109.0,231.2 113.5,227.0 118.0,222.9 122.5,218.9 127.0,215.0 131.5,211.3 136.0,207.6 140.5,204.1 145.0,200.6 149.5,197.3 154.0,194.1 158.5,191.0 163.0,188.0 167.5,185.2 172.0,182.4 176.5,179.8 181.0,177.2 185.5,174.8 190.0,172.5 194.5,170.3 199.0,168.2 203.5,166.3 208.0,164.4 212.5,162.7 217.0,161.0 221.5,159.5 226.0,158.1 230.5,156.8 235.0,155.6 239.5,154.6 244.0,153.6 248.5,152.8 253.0,152.0 257.5,151.4 262.0,150.9 266.5,150.5 271.0,150.2 275.5,150.1 280.0,150.0 284.5,150.1 289.0,150.2 293.5,150.5 298.0,150.9 302.5,151.4 307.0,152.0 311.5,152.8 316.0,153.6 320.5,154.6 325.0,155.6 329.5,156.8 334.0,158.1 338.5,159.5 343.0,161.0 347.5,162.7 352.0,164.4 356.5,166.3 361.0,168.2 365.5,170.3 370.0,172.5 374.5,174.8 379.0,177.2 383.5,179.8 388.0,182.4 392.5,185.2 397.0,188.0 401.5,191.0 406.0,194.1 410.5,197.3 415.0,200.6 419.5,204.1 424.0,207.6 428.5,211.3 433.0,215.0 437.5,218.9 442.0,222.9 446.5,227.0 451.0,231.2 455.5,235.6 460.0,240.0" fill="none" stroke="#7c3aed" stroke-width="2.4"/><text x="110" y="250" font-size="12" fill="#7c3aed">valence band</text><circle cx="118.0" cy="222.9" r="5" fill="#334155"/><circle cx="145.0" cy="200.6" r="5" fill="#334155"/><circle cx="172.0" cy="182.4" r="5" fill="#334155"/><circle cx="199.0" cy="168.2" r="5" fill="#334155"/><circle cx="226.0" cy="158.1" r="5" fill="#334155"/><circle cx="253.0" cy="152.0" r="5" fill="#334155"/><circle cx="280.0" cy="150.0" r="5" fill="#334155"/><circle cx="307.0" cy="152.0" r="5.5" fill="white" stroke="#dc2626" stroke-width="2.2"/><circle cx="334.0" cy="158.1" r="5" fill="#334155"/><circle cx="361.0" cy="168.2" r="5" fill="#334155"/><circle cx="388.0" cy="182.4" r="5" fill="#334155"/><circle cx="415.0" cy="200.6" r="5" fill="#334155"/><circle cx="442.0" cy="222.9" r="5" fill="#334155"/><line x1="367.0" y1="112.0" x2="315.0" y2="148.0" stroke="#dc2626" stroke-width="1.8" marker-end="url(#arR)"/><text x="371.0" y="106.0" font-size="12" font-weight="bold" fill="#dc2626">hole (+e)</text><text x="280" y="305" text-anchor="middle" font-size="12" fill="#475569">A full band carries no current — track the one empty state instead.</text></svg>