<svg viewBox="0 0 640 360" xmlns="http://www.w3.org/2000/svg" font-family="Calibri, Arial, sans-serif"><defs><marker id="ar" markerWidth="9" markerHeight="9" refX="7" refY="3" orient="auto" markerUnits="strokeWidth"><path d="M0,0 L7,3 L0,6 Z" fill="#334155"/></marker><marker id="arR" markerWidth="9" markerHeight="9" refX="7" refY="3" orient="auto" markerUnits="strokeWidth"><path d="M0,0 L7,3 L0,6 Z" fill="#dc2626"/></marker><marker id="arRs" markerWidth="9" markerHeight="9" refX="2" refY="3" orient="auto" markerUnits="strokeWidth"><path d="M7,0 L0,3 L7,6 Z" fill="#dc2626"/></marker><marker id="arT" markerWidth="9" markerHeight="9" refX="7" refY="3" orient="auto" markerUnits="strokeWidth"><path d="M0,0 L7,3 L0,6 Z" fill="#0f766e"/></marker><marker id="arB" markerWidth="9" markerHeight="9" refX="7" refY="3" orient="auto" markerUnits="strokeWidth"><path d="M0,0 L7,3 L0,6 Z" fill="#b45309"/></marker></defs><rect x="20" y="40" width="600" height="300" rx="12" fill="#ffffff" stroke="#e2e8f0" stroke-width="1.5"/><text x="320" y="68" text-anchor="middle" font-size="16" font-weight="bold" fill="#1f2a37">Krönig–Penney: allowed &amp; forbidden bands</text><text x="320" y="86" text-anchor="middle" font-size="12.5" fill="#64748b">solutions exist only where |f(αa)| ≤ 1</text><rect x="72" y="190.0" width="528" height="52.4" fill="#14b8a6" fill-opacity="0.14"/><line x1="72" y1="190.0" x2="600" y2="190.0" stroke="#0d9488" stroke-width="1.2" stroke-dasharray="4 3"/><line x1="72" y1="242.4" x2="600" y2="242.4" stroke="#0d9488" stroke-width="1.2" stroke-dasharray="4 3"/><text x="604" y="194.0" font-size="11" fill="#0d9488">+1</text><text x="604" y="246.4" font-size="11" fill="#0d9488">−1</text><line x1="72" y1="300" x2="610" y2="300" stroke="#334155" stroke-width="1.4" marker-end="url(#ar)"/><line x1="72" y1="300" x2="72" y2="74" stroke="#334155" stroke-width="1.4" marker-end="url(#ar)"/><text x="602" y="318" font-size="12" font-style="italic" fill="#334155">αa</text><text x="64" y="80" text-anchor="end" font-size="12" font-style="italic" fill="#334155">f</text><rect x="162.5" y="304" width="41.9" height="9" fill="#0d9488"/><rect x="264.7" y="304" width="71.7" height="9" fill="#0d9488"/><rect x="378.2" y="304" width="90.1" height="9" fill="#0d9488"/><rect x="499.7" y="304" width="100.3" height="9" fill="#0d9488"/><text x="336" y="330" text-anchor="middle" font-size="11" fill="#0d9488">allowed energy bands (green) — gaps between them are forbidden</text><polyline points="72.0,85.2 72.4,85.2 72.8,85.2 73.1,85.3 73.5,85.3 73.9,85.3 74.3,85.3 74.6,85.4 75.0,85.4 75.4,85.4 75.8,85.5 76.1,85.5 76.5,85.6 76.9,85.7 77.3,85.7 77.7,85.8 78.0,85.9 78.4,85.9 78.8,86.0 79.2,86.1 79.5,86.2 79.9,86.3 80.3,86.4 80.7,86.5 81.1,86.7 81.4,86.8 81.8,86.9 82.2,87.0 82.6,87.2 82.9,87.3 83.3,87.4 83.7,87.6 84.1,87.7 84.4,87.9 84.8,88.1 85.2,88.2 85.6,88.4 86.0,88.6 86.3,88.8 86.7,89.0 87.1,89.1 87.5,89.3 87.8,89.5 88.2,89.7 88.6,90.0 89.0,90.2 89.3,90.4 89.7,90.6 90.1,90.8 90.5,91.1 90.9,91.3 91.2,91.6 91.6,91.8 92.0,92.1 92.4,92.3 92.7,92.6 93.1,92.8 93.5,93.1 93.9,93.4 94.3,93.7 94.6,93.9 95.0,94.2 95.4,94.5 95.8,94.8 96.1,95.1 96.5,95.4 96.9,95.7 97.3,96.0 97.6,96.4 98.0,96.7 98.4,97.0 98.8,97.3 99.2,97.7 99.5,98.0 99.9,98.3 100.3,98.7 100.7,99.0 101.0,99.4 101.4,99.8 101.8,100.1 102.2,100.5 102.5,100.8 102.9,101.2 103.3,101.6 103.7,102.0 104.1,102.4 104.4,102.8 104.8,103.2 105.2,103.6 105.6,104.0 105.9,104.4 106.3,104.8 106.7,105.2 107.1,105.6 107.5,106.0 107.8,106.4 108.2,106.9 108.6,107.3 109.0,107.7 109.3,108.2 109.7,108.6 110.1,109.1 110.5,109.5 110.8,110.0 111.2,110.4 111.6,110.9 112.0,111.3 112.4,111.8 112.7,112.3 113.1,112.7 113.5,113.2 113.9,113.7 114.2,114.2 114.6,114.7 115.0,115.1 115.4,115.6 115.7,116.1 116.1,116.6 116.5,117.1 116.9,117.6 117.3,118.1 117.6,118.6 118.0,119.2 118.4,119.7 118.8,120.2 119.1,120.7 119.5,121.2 119.9,121.8 120.3,122.3 120.7,122.8 121.0,123.3 121.4,123.9 121.8,124.4 122.2,125.0 122.5,125.5 122.9,126.0 123.3,126.6 123.7,127.1 124.0,127.7 124.4,128.3 124.8,128.8 125.2,129.4 125.6,129.9 125.9,130.5 126.3,131.1 126.7,131.6 127.1,132.2 127.4,132.8 127.8,133.3 128.2,133.9 128.6,134.5 128.9,135.1 129.3,135.7 129.7,136.3 130.1,136.8 130.5,137.4 130.8,138.0 131.2,138.6 131.6,139.2 132.0,139.8 132.3,140.4 132.7,141.0 133.1,141.6 133.5,142.2 133.9,142.8 134.2,143.4 134.6,144.0 135.0,144.6 135.4,145.2 135.7,145.8 136.1,146.4 136.5,147.0 136.9,147.7 137.2,148.3 137.6,148.9 138.0,149.5 138.4,150.1 138.8,150.7 139.1,151.3 139.5,152.0 139.9,152.6 140.3,153.2 140.6,153.8 141.0,154.5 141.4,155.1 141.8,155.7 142.1,156.3 142.5,157.0 142.9,157.6 143.3,158.2 143.7,158.8 144.0,159.5 144.4,160.1 144.8,160.7 145.2,161.3 145.5,162.0 145.9,162.6 146.3,163.2 146.7,163.9 147.1,164.5 147.4,165.1 147.8,165.8 148.2,166.4 148.6,167.0 148.9,167.6 149.3,168.3 149.7,168.9 150.1,169.5 150.4,170.2 150.8,170.8 151.2,171.4 151.6,172.1 152.0,172.7 152.3,173.3 152.7,173.9 153.1,174.6 153.5,175.2 153.8,175.8 154.2,176.5 154.6,177.1 155.0,177.7 155.3,178.3 155.7,179.0 156.1,179.6 156.5,180.2 156.9,180.8 157.2,181.4 157.6,182.1 158.0,182.7 158.4,183.3 158.7,183.9 159.1,184.5 159.5,185.1 159.9,185.8 160.3,186.4 160.6,187.0 161.0,187.6 161.4,188.2 161.8,188.8 162.1,189.4 162.5,190.0 162.9,190.6 163.3,191.2 163.6,191.8 164.0,192.4 164.4,193.0 164.8,193.6 165.2,194.2 165.5,194.8 165.9,195.4 166.3,196.0 166.7,196.6 167.0,197.2 167.4,197.8 167.8,198.4 168.2,199.0 168.5,199.5 168.9,200.1 169.3,200.7 169.7,201.3 170.1,201.8 170.4,202.4 170.8,203.0 171.2,203.6 171.6,204.1 171.9,204.7 172.3,205.2 172.7,205.8 173.1,206.4 173.5,206.9 173.8,207.5 174.2,208.0 174.6,208.6 175.0,209.1 175.3,209.7 175.7,210.2 176.1,210.7 176.5,211.3 176.8,211.8 177.2,212.3 177.6,212.9 178.0,213.4 178.4,213.9 178.7,214.5 179.1,215.0 179.5,215.5 179.9,216.0 180.2,216.5 180.6,217.0 181.0,217.5 181.4,218.0 181.7,218.5 182.1,219.0 182.5,219.5 182.9,220.0 183.3,220.5 183.6,221.0 184.0,221.5 184.4,222.0 184.8,222.4 185.1,222.9 185.5,223.4 185.9,223.8 186.3,224.3 186.7,224.8 187.0,225.2 187.4,225.7 187.8,226.1 188.2,226.6 188.5,227.0 188.9,227.5 189.3,227.9 189.7,228.4 190.0,228.8 190.4,229.2 190.8,229.6 191.2,230.1 191.6,230.5 191.9,230.9 192.3,231.3 192.7,231.7 193.1,232.1 193.4,232.5 193.8,232.9 194.2,233.3 194.6,233.7 194.9,234.1 195.3,234.5 195.7,234.9 196.1,235.3 196.5,235.6 196.8,236.0 197.2,236.4 197.6,236.7 198.0,237.1 198.3,237.5 198.7,237.8 199.1,238.2 199.5,238.5 199.9,238.9 200.2,239.2 200.6,239.5 201.0,239.9 201.4,240.2 201.7,240.5 202.1,240.8 202.5,241.2 202.9,241.5 203.2,241.8 203.6,242.1 204.0,242.4 204.4,242.7 204.8,243.0 205.1,243.3 205.5,243.5 205.9,243.8 206.3,244.1 206.6,244.4 207.0,244.7 207.4,244.9 207.8,245.2 208.1,245.4 208.5,245.7 208.9,245.9 209.3,246.2 209.7,246.4 210.0,246.7 210.4,246.9 210.8,247.1 211.2,247.4 211.5,247.6 211.9,247.8 212.3,248.0 212.7,248.2 213.1,248.4 213.4,248.6 213.8,248.8 214.2,249.0 214.6,249.2 214.9,249.4 215.3,249.6 215.7,249.8 216.1,250.0 216.4,250.1 216.8,250.3 217.2,250.5 217.6,250.6 218.0,250.8 218.3,250.9 218.7,251.1 219.1,251.2 219.5,251.4 219.8,251.5 220.2,251.6 220.6,251.8 221.0,251.9 221.3,252.0 221.7,252.1 222.1,252.2 222.5,252.3 222.9,252.4 223.2,252.5 223.6,252.6 224.0,252.7 224.4,252.8 224.7,252.9 225.1,253.0 225.5,253.1 225.9,253.1 226.3,253.2 226.6,253.3 227.0,253.3 227.4,253.4 227.8,253.4 228.1,253.5 228.5,253.5 228.9,253.6 229.3,253.6 229.6,253.7 230.0,253.7 230.4,253.7 230.8,253.7 231.2,253.8 231.5,253.8 231.9,253.8 232.3,253.8 232.7,253.8 233.0,253.8 233.4,253.8 233.8,253.8 234.2,253.8 234.5,253.8 234.9,253.7 235.3,253.7 235.7,253.7 236.1,253.7 236.4,253.6 236.8,253.6 237.2,253.6 237.6,253.5 237.9,253.5 238.3,253.4 238.7,253.4 239.1,253.3 239.5,253.2 239.8,253.2 240.2,253.1 240.6,253.0 241.0,253.0 241.3,252.9 241.7,252.8 242.1,252.7 242.5,252.6 242.8,252.5 243.2,252.4 243.6,252.3 244.0,252.2 244.4,252.1 244.7,252.0 245.1,251.9 245.5,251.8 245.9,251.7 246.2,251.6 246.6,251.4 247.0,251.3 247.4,251.2 247.7,251.0 248.1,250.9 248.5,250.8 248.9,250.6 249.3,250.5 249.6,250.3 250.0,250.2 250.4,250.0 250.8,249.9 251.1,249.7 251.5,249.5 251.9,249.4 252.3,249.2 252.7,249.0 253.0,248.8 253.4,248.7 253.8,248.5 254.2,248.3 254.5,248.1 254.9,247.9 255.3,247.7 255.7,247.5 256.0,247.3 256.4,247.1 256.8,246.9 257.2,246.7 257.6,246.5 257.9,246.3 258.3,246.1 258.7,245.9 259.1,245.7 259.4,245.4 259.8,245.2 260.2,245.0 260.6,244.8 260.9,244.5 261.3,244.3 261.7,244.1 262.1,243.8 262.5,243.6 262.8,243.4 263.2,243.1 263.6,242.9 264.0,242.6 264.3,242.4 264.7,242.1 265.1,241.9 265.5,241.6 265.9,241.4 266.2,241.1 266.6,240.8 267.0,240.6 267.4,240.3 267.7,240.1 268.1,239.8 268.5,239.5 268.9,239.2 269.2,239.0 269.6,238.7 270.0,238.4 270.4,238.1 270.8,237.9 271.1,237.6 271.5,237.3 271.9,237.0 272.3,236.7 272.6,236.4 273.0,236.2 273.4,235.9 273.8,235.6 274.1,235.3 274.5,235.0 274.9,234.7 275.3,234.4 275.7,234.1 276.0,233.8 276.4,233.5 276.8,233.2 277.2,232.9 277.5,232.6 277.9,232.3 278.3,232.0 278.7,231.7 279.1,231.4 279.4,231.1 279.8,230.7 280.2,230.4 280.6,230.1 280.9,229.8 281.3,229.5 281.7,229.2 282.1,228.9 282.4,228.6 282.8,228.2 283.2,227.9 283.6,227.6 284.0,227.3 284.3,227.0 284.7,226.6 285.1,226.3 285.5,226.0 285.8,225.7 286.2,225.4 286.6,225.0 287.0,224.7 287.3,224.4 287.7,224.1 288.1,223.8 288.5,223.4 288.9,223.1 289.2,222.8 289.6,222.5 290.0,222.1 290.4,221.8 290.7,221.5 291.1,221.2 291.5,220.9 291.9,220.5 292.3,220.2 292.6,219.9 293.0,219.6 293.4,219.2 293.8,218.9 294.1,218.6 294.5,218.3 294.9,217.9 295.3,217.6 295.6,217.3 296.0,217.0 296.4,216.7 296.8,216.3 297.2,216.0 297.5,215.7 297.9,215.4 298.3,215.1 298.7,214.8 299.0,214.4 299.4,214.1 299.8,213.8 300.2,213.5 300.5,213.2 300.9,212.9 301.3,212.5 301.7,212.2 302.1,211.9 302.4,211.6 302.8,211.3 303.2,211.0 303.6,210.7 303.9,210.4 304.3,210.1 304.7,209.8 305.1,209.5 305.5,209.2 305.8,208.9 306.2,208.6 306.6,208.3 307.0,208.0 307.3,207.7 307.7,207.4 308.1,207.1 308.5,206.8 308.8,206.5 309.2,206.2 309.6,205.9 310.0,205.6 310.4,205.3 310.7,205.0 311.1,204.7 311.5,204.5 311.9,204.2 312.2,203.9 312.6,203.6 313.0,203.3 313.4,203.1 313.7,202.8 314.1,202.5 314.5,202.2 314.9,202.0 315.3,201.7 315.6,201.4 316.0,201.2 316.4,200.9 316.8,200.6 317.1,200.4 317.5,200.1 317.9,199.9 318.3,199.6 318.7,199.4 319.0,199.1 319.4,198.9 319.8,198.6 320.2,198.4 320.5,198.1 320.9,197.9 321.3,197.6 321.7,197.4 322.0,197.2 322.4,196.9 322.8,196.7 323.2,196.5 323.6,196.2 323.9,196.0 324.3,195.8 324.7,195.6 325.1,195.4 325.4,195.1 325.8,194.9 326.2,194.7 326.6,194.5 326.9,194.3 327.3,194.1 327.7,193.9 328.1,193.7 328.5,193.5 328.8,193.3 329.2,193.1 329.6,192.9 330.0,192.7 330.3,192.5 330.7,192.3 331.1,192.2 331.5,192.0 331.9,191.8 332.2,191.6 332.6,191.4 333.0,191.3 333.4,191.1 333.7,190.9 334.1,190.8 334.5,190.6 334.9,190.5 335.2,190.3 335.6,190.2 336.0,190.0 336.4,189.9 336.8,189.7 337.1,189.6 337.5,189.4 337.9,189.3 338.3,189.1 338.6,189.0 339.0,188.9 339.4,188.8 339.8,188.6 340.1,188.5 340.5,188.4 340.9,188.3 341.3,188.2 341.7,188.0 342.0,187.9 342.4,187.8 342.8,187.7 343.2,187.6 343.5,187.5 343.9,187.4 344.3,187.3 344.7,187.2 345.1,187.2 345.4,187.1 345.8,187.0 346.2,186.9 346.6,186.8 346.9,186.8 347.3,186.7 347.7,186.6 348.1,186.6 348.4,186.5 348.8,186.4 349.2,186.4 349.6,186.3 350.0,186.3 350.3,186.2 350.7,186.2 351.1,186.1 351.5,186.1 351.8,186.0 352.2,186.0 352.6,186.0 353.0,186.0 353.3,185.9 353.7,185.9 354.1,185.9 354.5,185.9 354.9,185.8 355.2,185.8 355.6,185.8 356.0,185.8 356.4,185.8 356.7,185.8 357.1,185.8 357.5,185.8 357.9,185.8 358.3,185.8 358.6,185.8 359.0,185.8 359.4,185.9 359.8,185.9 360.1,185.9 360.5,185.9 360.9,186.0 361.3,186.0 361.6,186.0 362.0,186.1 362.4,186.1 362.8,186.1 363.2,186.2 363.5,186.2 363.9,186.3 364.3,186.3 364.7,186.4 365.0,186.4 365.4,186.5 365.8,186.6 366.2,186.6 366.5,186.7 366.9,186.8 367.3,186.8 367.7,186.9 368.1,187.0 368.4,187.1 368.8,187.1 369.2,187.2 369.6,187.3 369.9,187.4 370.3,187.5 370.7,187.6 371.1,187.7 371.5,187.8 371.8,187.9 372.2,188.0 372.6,188.1 373.0,188.2 373.3,188.3 373.7,188.5 374.1,188.6 374.5,188.7 374.8,188.8 375.2,188.9 375.6,189.1 376.0,189.2 376.4,189.3 376.7,189.5 377.1,189.6 377.5,189.7 377.9,189.9 378.2,190.0 378.6,190.2 379.0,190.3 379.4,190.5 379.7,190.6 380.1,190.8 380.5,190.9 380.9,191.1 381.3,191.2 381.6,191.4 382.0,191.6 382.4,191.7 382.8,191.9 383.1,192.1 383.5,192.3 383.9,192.4 384.3,192.6 384.7,192.8 385.0,193.0 385.4,193.1 385.8,193.3 386.2,193.5 386.5,193.7 386.9,193.9 387.3,194.1 387.7,194.3 388.0,194.5 388.4,194.7 388.8,194.9 389.2,195.1 389.6,195.3 389.9,195.5 390.3,195.7 390.7,195.9 391.1,196.1 391.4,196.3 391.8,196.5 392.2,196.8 392.6,197.0 392.9,197.2 393.3,197.4 393.7,197.6 394.1,197.9 394.5,198.1 394.8,198.3 395.2,198.5 395.6,198.8 396.0,199.0 396.3,199.2 396.7,199.5 397.1,199.7 397.5,199.9 397.9,200.2 398.2,200.4 398.6,200.6 399.0,200.9 399.4,201.1 399.7,201.4 400.1,201.6 400.5,201.9 400.9,202.1 401.2,202.4 401.6,202.6 402.0,202.9 402.4,203.1 402.8,203.4 403.1,203.6 403.5,203.9 403.9,204.1 404.3,204.4 404.6,204.6 405.0,204.9 405.4,205.1 405.8,205.4 406.1,205.7 406.5,205.9 406.9,206.2 407.3,206.4 407.7,206.7 408.0,207.0 408.4,207.2 408.8,207.5 409.2,207.8 409.5,208.0 409.9,208.3 410.3,208.6 410.7,208.8 411.1,209.1 411.4,209.4 411.8,209.6 412.2,209.9 412.6,210.2 412.9,210.5 413.3,210.7 413.7,211.0 414.1,211.3 414.4,211.5 414.8,211.8 415.2,212.1 415.6,212.4 416.0,212.6 416.3,212.9 416.7,213.2 417.1,213.5 417.5,213.7 417.8,214.0 418.2,214.3 418.6,214.5 419.0,214.8 419.3,215.1 419.7,215.4 420.1,215.6 420.5,215.9 420.9,216.2 421.2,216.5 421.6,216.7 422.0,217.0 422.4,217.3 422.7,217.5 423.1,217.8 423.5,218.1 423.9,218.4 424.3,218.6 424.6,218.9 425.0,219.2 425.4,219.4 425.8,219.7 426.1,220.0 426.5,220.3 426.9,220.5 427.3,220.8 427.6,221.1 428.0,221.3 428.4,221.6 428.8,221.9 429.2,222.1 429.5,222.4 429.9,222.7 430.3,222.9 430.7,223.2 431.0,223.4 431.4,223.7 431.8,224.0 432.2,224.2 432.5,224.5 432.9,224.7 433.3,225.0 433.7,225.2 434.1,225.5 434.4,225.8 434.8,226.0 435.2,226.3 435.6,226.5 435.9,226.8 436.3,227.0 436.7,227.3 437.1,227.5 437.5,227.8 437.8,228.0 438.2,228.2 438.6,228.5 439.0,228.7 439.3,229.0 439.7,229.2 440.1,229.4 440.5,229.7 440.8,229.9 441.2,230.1 441.6,230.4 442.0,230.6 442.4,230.8 442.7,231.1 443.1,231.3 443.5,231.5 443.9,231.7 444.2,232.0 444.6,232.2 445.0,232.4 445.4,232.6 445.7,232.8 446.1,233.1 446.5,233.3 446.9,233.5 447.3,233.7 447.6,233.9 448.0,234.1 448.4,234.3 448.8,234.5 449.1,234.7 449.5,234.9 449.9,235.1 450.3,235.3 450.7,235.5 451.0,235.7 451.4,235.9 451.8,236.1 452.2,236.3 452.5,236.5 452.9,236.7 453.3,236.8 453.7,237.0 454.0,237.2 454.4,237.4 454.8,237.5 455.2,237.7 455.6,237.9 455.9,238.1 456.3,238.2 456.7,238.4 457.1,238.6 457.4,238.7 457.8,238.9 458.2,239.0 458.6,239.2 458.9,239.3 459.3,239.5 459.7,239.6 460.1,239.8 460.5,239.9 460.8,240.1 461.2,240.2 461.6,240.4 462.0,240.5 462.3,240.6 462.7,240.8 463.1,240.9 463.5,241.0 463.9,241.1 464.2,241.3 464.6,241.4 465.0,241.5 465.4,241.6 465.7,241.7 466.1,241.9 466.5,242.0 466.9,242.1 467.2,242.2 467.6,242.3 468.0,242.4 468.4,242.5 468.8,242.6 469.1,242.7 469.5,242.8 469.9,242.9 470.3,242.9 470.6,243.0 471.0,243.1 471.4,243.2 471.8,243.3 472.1,243.3 472.5,243.4 472.9,243.5 473.3,243.5 473.7,243.6 474.0,243.7 474.4,243.7 474.8,243.8 475.2,243.9 475.5,243.9 475.9,244.0 476.3,244.0 476.7,244.1 477.1,244.1 477.4,244.1 477.8,244.2 478.2,244.2 478.6,244.3 478.9,244.3 479.3,244.3 479.7,244.3 480.1,244.4 480.4,244.4 480.8,244.4 481.2,244.4 481.6,244.4 482.0,244.5 482.3,244.5 482.7,244.5 483.1,244.5 483.5,244.5 483.8,244.5 484.2,244.5 484.6,244.5 485.0,244.5 485.3,244.5 485.7,244.4 486.1,244.4 486.5,244.4 486.9,244.4 487.2,244.4 487.6,244.3 488.0,244.3 488.4,244.3 488.7,244.3 489.1,244.2 489.5,244.2 489.9,244.2 490.3,244.1 490.6,244.1 491.0,244.0 491.4,244.0 491.8,243.9 492.1,243.9 492.5,243.8 492.9,243.8 493.3,243.7 493.6,243.6 494.0,243.6 494.4,243.5 494.8,243.4 495.2,243.4 495.5,243.3 495.9,243.2 496.3,243.1 496.7,243.1 497.0,243.0 497.4,242.9 497.8,242.8 498.2,242.7 498.5,242.6 498.9,242.5 499.3,242.4 499.7,242.3 500.1,242.2 500.4,242.1 500.8,242.0 501.2,241.9 501.6,241.8 501.9,241.7 502.3,241.6 502.7,241.5 503.1,241.3 503.5,241.2 503.8,241.1 504.2,241.0 504.6,240.8 505.0,240.7 505.3,240.6 505.7,240.5 506.1,240.3 506.5,240.2 506.8,240.0 507.2,239.9 507.6,239.8 508.0,239.6 508.4,239.5 508.7,239.3 509.1,239.2 509.5,239.0 509.9,238.9 510.2,238.7 510.6,238.5 511.0,238.4 511.4,238.2 511.7,238.1 512.1,237.9 512.5,237.7 512.9,237.6 513.3,237.4 513.6,237.2 514.0,237.0 514.4,236.9 514.8,236.7 515.1,236.5 515.5,236.3 515.9,236.1 516.3,236.0 516.7,235.8 517.0,235.6 517.4,235.4 517.8,235.2 518.2,235.0 518.5,234.8 518.9,234.6 519.3,234.4 519.7,234.2 520.0,234.0 520.4,233.8 520.8,233.6 521.2,233.4 521.6,233.2 521.9,233.0 522.3,232.8 522.7,232.6 523.1,232.4 523.4,232.1 523.8,231.9 524.2,231.7 524.6,231.5 524.9,231.3 525.3,231.1 525.7,230.8 526.1,230.6 526.5,230.4 526.8,230.2 527.2,229.9 527.6,229.7 528.0,229.5 528.3,229.3 528.7,229.0 529.1,228.8 529.5,228.6 529.9,228.3 530.2,228.1 530.6,227.9 531.0,227.6 531.4,227.4 531.7,227.2 532.1,226.9 532.5,226.7 532.9,226.4 533.2,226.2 533.6,226.0 534.0,225.7 534.4,225.5 534.8,225.2 535.1,225.0 535.5,224.7 535.9,224.5 536.3,224.2 536.6,224.0 537.0,223.8 537.4,223.5 537.8,223.3 538.1,223.0 538.5,222.8 538.9,222.5 539.3,222.3 539.7,222.0 540.0,221.8 540.4,221.5 540.8,221.2 541.2,221.0 541.5,220.7 541.9,220.5 542.3,220.2 542.7,220.0 543.1,219.7 543.4,219.5 543.8,219.2 544.2,219.0 544.6,218.7 544.9,218.4 545.3,218.2 545.7,217.9 546.1,217.7 546.4,217.4 546.8,217.2 547.2,216.9 547.6,216.7 548.0,216.4 548.3,216.1 548.7,215.9 549.1,215.6 549.5,215.4 549.8,215.1 550.2,214.9 550.6,214.6 551.0,214.3 551.3,214.1 551.7,213.8 552.1,213.6 552.5,213.3 552.9,213.1 553.2,212.8 553.6,212.6 554.0,212.3 554.4,212.1 554.7,211.8 555.1,211.6 555.5,211.3 555.9,211.1 556.3,210.8 556.6,210.6 557.0,210.3 557.4,210.1 557.8,209.8 558.1,209.6 558.5,209.3 558.9,209.1 559.3,208.8 559.6,208.6 560.0,208.3 560.4,208.1 560.8,207.8 561.2,207.6 561.5,207.4 561.9,207.1 562.3,206.9 562.7,206.6 563.0,206.4 563.4,206.2 563.8,205.9 564.2,205.7 564.5,205.5 564.9,205.2 565.3,205.0 565.7,204.8 566.1,204.5 566.4,204.3 566.8,204.1 567.2,203.8 567.6,203.6 567.9,203.4 568.3,203.2 568.7,202.9 569.1,202.7 569.5,202.5 569.8,202.3 570.2,202.1 570.6,201.8 571.0,201.6 571.3,201.4 571.7,201.2 572.1,201.0 572.5,200.8 572.8,200.6 573.2,200.4 573.6,200.2 574.0,200.0 574.4,199.8 574.7,199.5 575.1,199.3 575.5,199.1 575.9,199.0 576.2,198.8 576.6,198.6 577.0,198.4 577.4,198.2 577.7,198.0 578.1,197.8 578.5,197.6 578.9,197.4 579.3,197.2 579.6,197.1 580.0,196.9 580.4,196.7 580.8,196.5 581.1,196.3 581.5,196.2 581.9,196.0 582.3,195.8 582.7,195.7 583.0,195.5 583.4,195.3 583.8,195.2 584.2,195.0 584.5,194.8 584.9,194.7 585.3,194.5 585.7,194.4 586.0,194.2 586.4,194.1 586.8,193.9 587.2,193.8 587.6,193.6 587.9,193.5 588.3,193.3 588.7,193.2 589.1,193.1 589.4,192.9 589.8,192.8 590.2,192.7 590.6,192.5 590.9,192.4 591.3,192.3 591.7,192.2 592.1,192.0 592.5,191.9 592.8,191.8 593.2,191.7 593.6,191.6 594.0,191.5 594.3,191.4 594.7,191.3 595.1,191.2 595.5,191.1 595.9,191.0 596.2,190.9 596.6,190.8 597.0,190.7 597.4,190.6 597.7,190.5 598.1,190.4 598.5,190.3 598.9,190.2 599.2,190.2 599.6,190.1 600.0,190.0" fill="none" stroke="#1f2a37" stroke-width="2.2"/></svg>