<svg viewBox="0 0 600 340" xmlns="http://www.w3.org/2000/svg" font-family="Calibri, Arial, sans-serif"><defs><marker id="ar" markerWidth="9" markerHeight="9" refX="7" refY="3" orient="auto" markerUnits="strokeWidth"><path d="M0,0 L7,3 L0,6 Z" fill="#334155"/></marker><marker id="arR" markerWidth="9" markerHeight="9" refX="7" refY="3" orient="auto" markerUnits="strokeWidth"><path d="M0,0 L7,3 L0,6 Z" fill="#dc2626"/></marker><marker id="arO" markerWidth="9" markerHeight="9" refX="7" refY="3" orient="auto" markerUnits="strokeWidth"><path d="M0,0 L7,3 L0,6 Z" fill="#b45309"/></marker><marker id="arRs" markerWidth="9" markerHeight="9" refX="2" refY="3" orient="auto" markerUnits="strokeWidth"><path d="M7,0 L0,3 L7,6 Z" fill="#b45309"/></marker></defs><rect x="20" y="40" width="560" height="295" rx="12" fill="#ffffff" stroke="#e2e8f0" stroke-width="1.5"/><text x="300" y="66" text-anchor="middle" font-size="16" font-weight="bold" fill="#1f2a37">LED vs laser diode spectrum</text><text x="300" y="84" text-anchor="middle" font-size="12.5" fill="#64748b">broad spontaneous emission vs a narrow stimulated line</text><line x1="80" y1="290" x2="548" y2="290" stroke="#334155" stroke-width="1.3" marker-end="url(#ar)"/><line x1="80" y1="290" x2="80" y2="104" stroke="#334155" stroke-width="1.3" marker-end="url(#ar)"/><text x="542" y="308" font-size="11.5" font-style="italic" fill="#334155">hν</text><text x="72" y="110" text-anchor="end" font-size="11.5" fill="#334155">intensity</text><polyline points="80.0,290.0 81.5,290.0 83.1,290.0 84.6,290.0 86.1,290.0 87.7,290.0 89.2,290.0 90.7,290.0 92.3,290.0 93.8,290.0 95.3,290.0 96.9,290.0 98.4,290.0 99.9,290.0 101.5,290.0 103.0,290.0 104.5,290.0 106.1,290.0 107.6,290.0 109.1,290.0 110.7,290.0 112.2,290.0 113.7,290.0 115.3,290.0 116.8,290.0 118.3,290.0 119.9,290.0 121.4,290.0 122.9,290.0 124.5,290.0 126.0,290.0 127.5,290.0 129.1,290.0 130.6,290.0 132.1,290.0 133.7,290.0 135.2,289.9 136.7,289.9 138.3,289.9 139.8,289.9 141.3,289.9 142.9,289.9 144.4,289.8 145.9,289.8 147.5,289.8 149.0,289.8 150.5,289.7 152.1,289.7 153.6,289.6 155.1,289.6 156.7,289.5 158.2,289.4 159.7,289.4 161.3,289.3 162.8,289.2 164.3,289.0 165.9,288.9 167.4,288.7 168.9,288.6 170.5,288.4 172.0,288.2 173.5,288.0 175.1,287.7 176.6,287.4 178.1,287.1 179.7,286.8 181.2,286.4 182.7,286.0 184.3,285.5 185.8,285.0 187.3,284.4 188.9,283.8 190.4,283.2 191.9,282.5 193.5,281.7 195.0,280.9 196.5,280.0 198.1,279.1 199.6,278.1 201.1,277.0 202.7,275.8 204.2,274.6 205.7,273.3 207.3,271.9 208.8,270.4 210.3,268.9 211.9,267.2 213.4,265.5 214.9,263.7 216.5,261.8 218.0,259.9 219.5,257.9 221.1,255.8 222.6,253.6 224.1,251.3 225.7,249.0 227.2,246.7 228.7,244.3 230.3,241.8 231.8,239.3 233.3,236.8 234.9,234.2 236.4,231.7 237.9,229.1 239.5,226.5 241.0,224.0 242.5,221.4 244.1,218.9 245.6,216.5 247.1,214.1 248.7,211.7 250.2,209.5 251.7,207.3 253.3,205.2 254.8,203.3 256.3,201.4 257.9,199.7 259.4,198.1 260.9,196.7 262.5,195.4 264.0,194.2 265.5,193.2 267.1,192.4 268.6,191.8 270.1,191.4 271.7,191.1 273.2,191.0 274.7,191.1 276.3,191.4 277.8,191.8 279.3,192.4 280.9,193.2 282.4,194.2 283.9,195.4 285.5,196.7 287.0,198.1 288.5,199.7 290.1,201.4 291.6,203.3 293.1,205.2 294.7,207.3 296.2,209.5 297.7,211.7 299.3,214.1 300.8,216.5 302.3,218.9 303.9,221.4 305.4,224.0 306.9,226.5 308.5,229.1 310.0,231.7 311.5,234.2 313.1,236.8 314.6,239.3 316.1,241.8 317.7,244.3 319.2,246.7 320.7,249.0 322.3,251.3 323.8,253.6 325.3,255.8 326.9,257.9 328.4,259.9 329.9,261.8 331.5,263.7 333.0,265.5 334.5,267.2 336.1,268.9 337.6,270.4 339.1,271.9 340.7,273.3 342.2,274.6 343.7,275.8 345.3,277.0 346.8,278.1 348.3,279.1 349.9,280.0 351.4,280.9 352.9,281.7 354.5,282.5 356.0,283.2 357.5,283.8 359.1,284.4 360.6,285.0 362.1,285.5 363.7,286.0 365.2,286.4 366.7,286.8 368.3,287.1 369.8,287.4 371.3,287.7 372.9,288.0 374.4,288.2 375.9,288.4 377.5,288.6 379.0,288.7 380.5,288.9 382.1,289.0 383.6,289.2 385.1,289.3 386.7,289.4 388.2,289.4 389.7,289.5 391.3,289.6 392.8,289.6 394.3,289.7 395.9,289.7 397.4,289.8 398.9,289.8 400.5,289.8 402.0,289.8 403.5,289.9 405.1,289.9 406.6,289.9 408.1,289.9 409.7,289.9 411.2,289.9 412.7,290.0 414.3,290.0 415.8,290.0 417.3,290.0 418.9,290.0 420.4,290.0 421.9,290.0 423.5,290.0 425.0,290.0 426.5,290.0 428.1,290.0 429.6,290.0 431.1,290.0 432.7,290.0 434.2,290.0 435.7,290.0 437.3,290.0 438.8,290.0 440.3,290.0 441.9,290.0 443.4,290.0 444.9,290.0 446.5,290.0 448.0,290.0 449.5,290.0 451.1,290.0 452.6,290.0 454.1,290.0 455.7,290.0 457.2,290.0 458.7,290.0 460.3,290.0 461.8,290.0 463.3,290.0 464.9,290.0 466.4,290.0 467.9,290.0 469.5,290.0 471.0,290.0 472.5,290.0 474.1,290.0 475.6,290.0 477.1,290.0 478.7,290.0 480.2,290.0 481.7,290.0 483.3,290.0 484.8,290.0 486.3,290.0 487.9,290.0 489.4,290.0 490.9,290.0 492.5,290.0 494.0,290.0 495.5,290.0 497.1,290.0 498.6,290.0 500.1,290.0 501.7,290.0 503.2,290.0 504.7,290.0 506.3,290.0 507.8,290.0 509.3,290.0 510.9,290.0 512.4,290.0 513.9,290.0 515.5,290.0 517.0,290.0 518.5,290.0 520.1,290.0 521.6,290.0 523.1,290.0 524.7,290.0 526.2,290.0 527.7,290.0 529.3,290.0 530.8,290.0 532.3,290.0 533.9,290.0 535.4,290.0 536.9,290.0 538.5,290.0 540.0,290.0" fill="none" stroke="#0d9488" stroke-width="2.4"/><polyline points="80.0,290.0 81.5,290.0 83.1,290.0 84.6,290.0 86.1,290.0 87.7,290.0 89.2,290.0 90.7,290.0 92.3,290.0 93.8,290.0 95.3,290.0 96.9,290.0 98.4,290.0 99.9,290.0 101.5,290.0 103.0,290.0 104.5,290.0 106.1,290.0 107.6,290.0 109.1,290.0 110.7,290.0 112.2,290.0 113.7,290.0 115.3,290.0 116.8,290.0 118.3,290.0 119.9,290.0 121.4,290.0 122.9,290.0 124.5,290.0 126.0,290.0 127.5,290.0 129.1,290.0 130.6,290.0 132.1,290.0 133.7,290.0 135.2,290.0 136.7,290.0 138.3,290.0 139.8,290.0 141.3,290.0 142.9,290.0 144.4,290.0 145.9,290.0 147.5,290.0 149.0,290.0 150.5,290.0 152.1,290.0 153.6,290.0 155.1,290.0 156.7,290.0 158.2,290.0 159.7,290.0 161.3,290.0 162.8,290.0 164.3,290.0 165.9,290.0 167.4,290.0 168.9,290.0 170.5,290.0 172.0,290.0 173.5,290.0 175.1,290.0 176.6,290.0 178.1,290.0 179.7,290.0 181.2,290.0 182.7,290.0 184.3,290.0 185.8,290.0 187.3,290.0 188.9,290.0 190.4,290.0 191.9,290.0 193.5,290.0 195.0,290.0 196.5,290.0 198.1,290.0 199.6,290.0 201.1,290.0 202.7,290.0 204.2,290.0 205.7,290.0 207.3,290.0 208.8,290.0 210.3,290.0 211.9,290.0 213.4,290.0 214.9,290.0 216.5,290.0 218.0,290.0 219.5,290.0 221.1,290.0 222.6,290.0 224.1,290.0 225.7,290.0 227.2,290.0 228.7,290.0 230.3,290.0 231.8,290.0 233.3,290.0 234.9,290.0 236.4,290.0 237.9,290.0 239.5,290.0 241.0,290.0 242.5,290.0 244.1,290.0 245.6,290.0 247.1,290.0 248.7,290.0 250.2,290.0 251.7,290.0 253.3,290.0 254.8,290.0 256.3,290.0 257.9,290.0 259.4,290.0 260.9,290.0 262.5,290.0 264.0,290.0 265.5,290.0 267.1,290.0 268.6,290.0 270.1,290.0 271.7,290.0 273.2,290.0 274.7,290.0 276.3,290.0 277.8,290.0 279.3,290.0 280.9,290.0 282.4,290.0 283.9,290.0 285.5,290.0 287.0,290.0 288.5,290.0 290.1,290.0 291.6,290.0 293.1,290.0 294.7,290.0 296.2,290.0 297.7,290.0 299.3,290.0 300.8,290.0 302.3,290.0 303.9,290.0 305.4,290.0 306.9,290.0 308.5,290.0 310.0,290.0 311.5,290.0 313.1,290.0 314.6,290.0 316.1,290.0 317.7,290.0 319.2,290.0 320.7,290.0 322.3,290.0 323.8,290.0 325.3,290.0 326.9,290.0 328.4,290.0 329.9,290.0 331.5,289.9 333.0,289.7 334.5,288.7 336.1,285.9 337.6,278.8 339.1,263.8 340.7,237.6 342.2,200.1 343.7,157.8 345.3,123.4 346.8,110.0 348.3,123.4 349.9,157.8 351.4,200.1 352.9,237.6 354.5,263.8 356.0,278.8 357.5,285.9 359.1,288.7 360.6,289.7 362.1,289.9 363.7,290.0 365.2,290.0 366.7,290.0 368.3,290.0 369.8,290.0 371.3,290.0 372.9,290.0 374.4,290.0 375.9,290.0 377.5,290.0 379.0,290.0 380.5,290.0 382.1,290.0 383.6,290.0 385.1,290.0 386.7,290.0 388.2,290.0 389.7,290.0 391.3,290.0 392.8,290.0 394.3,290.0 395.9,290.0 397.4,290.0 398.9,290.0 400.5,290.0 402.0,290.0 403.5,290.0 405.1,290.0 406.6,290.0 408.1,290.0 409.7,290.0 411.2,290.0 412.7,290.0 414.3,290.0 415.8,290.0 417.3,290.0 418.9,290.0 420.4,290.0 421.9,290.0 423.5,290.0 425.0,290.0 426.5,290.0 428.1,290.0 429.6,290.0 431.1,290.0 432.7,290.0 434.2,290.0 435.7,290.0 437.3,290.0 438.8,290.0 440.3,290.0 441.9,290.0 443.4,290.0 444.9,290.0 446.5,290.0 448.0,290.0 449.5,290.0 451.1,290.0 452.6,290.0 454.1,290.0 455.7,290.0 457.2,290.0 458.7,290.0 460.3,290.0 461.8,290.0 463.3,290.0 464.9,290.0 466.4,290.0 467.9,290.0 469.5,290.0 471.0,290.0 472.5,290.0 474.1,290.0 475.6,290.0 477.1,290.0 478.7,290.0 480.2,290.0 481.7,290.0 483.3,290.0 484.8,290.0 486.3,290.0 487.9,290.0 489.4,290.0 490.9,290.0 492.5,290.0 494.0,290.0 495.5,290.0 497.1,290.0 498.6,290.0 500.1,290.0 501.7,290.0 503.2,290.0 504.7,290.0 506.3,290.0 507.8,290.0 509.3,290.0 510.9,290.0 512.4,290.0 513.9,290.0 515.5,290.0 517.0,290.0 518.5,290.0 520.1,290.0 521.6,290.0 523.1,290.0 524.7,290.0 526.2,290.0 527.7,290.0 529.3,290.0 530.8,290.0 532.3,290.0 533.9,290.0 535.4,290.0 536.9,290.0 538.5,290.0 540.0,290.0" fill="none" stroke="#dc2626" stroke-width="2.4"/><line x1="213.4" y1="240.5" x2="333.0" y2="240.5" stroke="#0f766e" stroke-width="1.3" marker-start="url(#arRs)" marker-end="url(#ar)"/><text x="273.2" y="234.5" text-anchor="middle" font-size="10" fill="#0f766e">FWHM ≈ 1.8 kT</text><line x1="365.2" y1="119.0" x2="383.6" y2="119.0" stroke="#0d9488" stroke-width="2.6"/><text x="388.20000000000005" y="123" font-size="10.5" fill="#0d9488">LED (spontaneous)</text><line x1="365.2" y1="140.6" x2="383.6" y2="140.6" stroke="#dc2626" stroke-width="2.6"/><text x="388.20000000000005" y="145" font-size="10.5" fill="#dc2626">laser (&lt; 1 nm)</text><text x="300" y="322" text-anchor="middle" font-size="12" fill="#475569">LED: thermal width ≈47 meV at 300 K.   Laser: narrow line above threshold I_th.</text></svg>