<svg viewBox="0 0 760 300" xmlns="http://www.w3.org/2000/svg" font-family="Calibri, Arial, sans-serif"><defs><marker id="ar" markerWidth="9" markerHeight="9" refX="7" refY="3" orient="auto" markerUnits="strokeWidth"><path d="M0,0 L7,3 L0,6 Z" fill="#334155"/></marker></defs><rect x="15" y="30" width="730" height="255" rx="10" fill="#ffffff" stroke="#e2e8f0" stroke-width="1.5"/><text x="380" y="58" text-anchor="middle" font-size="16" font-weight="bold" fill="#1f2a37">Miller indices — crystal planes</text><text x="380" y="76" text-anchor="middle" font-size="12.5" fill="#64748b">(hkl) from reciprocal intercepts; cubic lattice</text><polygon points="223.9,204.0 165.0,238.0 165.0,170.0 223.9,136.0" fill="#14b8a6" fill-opacity="0.4" stroke="#0d9488" stroke-width="2"/><line x1="165.0" y1="170.0" x2="223.9" y2="204.0" stroke="#334155" stroke-width="1.3"/><line x1="165.0" y1="170.0" x2="106.1" y2="204.0" stroke="#334155" stroke-width="1.3"/><line x1="165.0" y1="170.0" x2="165.0" y2="102.0" stroke="#334155" stroke-width="1.3"/><line x1="223.9" y1="204.0" x2="165.0" y2="238.0" stroke="#334155" stroke-width="1.3"/><line x1="106.1" y1="204.0" x2="165.0" y2="238.0" stroke="#334155" stroke-width="1.3"/><line x1="223.9" y1="204.0" x2="223.9" y2="136.0" stroke="#334155" stroke-width="1.3"/><line x1="165.0" y1="102.0" x2="223.9" y2="136.0" stroke="#334155" stroke-width="1.3"/><line x1="106.1" y1="204.0" x2="106.1" y2="136.0" stroke="#334155" stroke-width="1.3"/><line x1="165.0" y1="102.0" x2="106.1" y2="136.0" stroke="#334155" stroke-width="1.3"/><line x1="165.0" y1="238.0" x2="165.0" y2="170.0" stroke="#334155" stroke-width="1.3"/><line x1="223.9" y1="136.0" x2="165.0" y2="170.0" stroke="#334155" stroke-width="1.3"/><line x1="106.1" y1="136.0" x2="165.0" y2="170.0" stroke="#334155" stroke-width="1.3"/><text x="165" y="265" text-anchor="middle" font-size="14" font-weight="bold" fill="#0f766e">(100)</text><polygon points="443.9,204.0 326.1,204.0 326.1,136.0 443.9,136.0" fill="#14b8a6" fill-opacity="0.4" stroke="#0d9488" stroke-width="2"/><line x1="385.0" y1="170.0" x2="443.9" y2="204.0" stroke="#334155" stroke-width="1.3"/><line x1="385.0" y1="170.0" x2="326.1" y2="204.0" stroke="#334155" stroke-width="1.3"/><line x1="385.0" y1="170.0" x2="385.0" y2="102.0" stroke="#334155" stroke-width="1.3"/><line x1="443.9" y1="204.0" x2="385.0" y2="238.0" stroke="#334155" stroke-width="1.3"/><line x1="326.1" y1="204.0" x2="385.0" y2="238.0" stroke="#334155" stroke-width="1.3"/><line x1="443.9" y1="204.0" x2="443.9" y2="136.0" stroke="#334155" stroke-width="1.3"/><line x1="385.0" y1="102.0" x2="443.9" y2="136.0" stroke="#334155" stroke-width="1.3"/><line x1="326.1" y1="204.0" x2="326.1" y2="136.0" stroke="#334155" stroke-width="1.3"/><line x1="385.0" y1="102.0" x2="326.1" y2="136.0" stroke="#334155" stroke-width="1.3"/><line x1="385.0" y1="238.0" x2="385.0" y2="170.0" stroke="#334155" stroke-width="1.3"/><line x1="443.9" y1="136.0" x2="385.0" y2="170.0" stroke="#334155" stroke-width="1.3"/><line x1="326.1" y1="136.0" x2="385.0" y2="170.0" stroke="#334155" stroke-width="1.3"/><text x="385" y="265" text-anchor="middle" font-size="14" font-weight="bold" fill="#0f766e">(110)</text><polygon points="663.9,204.0 546.1,204.0 605.0,102.0" fill="#14b8a6" fill-opacity="0.4" stroke="#0d9488" stroke-width="2"/><line x1="605.0" y1="170.0" x2="663.9" y2="204.0" stroke="#334155" stroke-width="1.3"/><line x1="605.0" y1="170.0" x2="546.1" y2="204.0" stroke="#334155" stroke-width="1.3"/><line x1="605.0" y1="170.0" x2="605.0" y2="102.0" stroke="#334155" stroke-width="1.3"/><line x1="663.9" y1="204.0" x2="605.0" y2="238.0" stroke="#334155" stroke-width="1.3"/><line x1="546.1" y1="204.0" x2="605.0" y2="238.0" stroke="#334155" stroke-width="1.3"/><line x1="663.9" y1="204.0" x2="663.9" y2="136.0" stroke="#334155" stroke-width="1.3"/><line x1="605.0" y1="102.0" x2="663.9" y2="136.0" stroke="#334155" stroke-width="1.3"/><line x1="546.1" y1="204.0" x2="546.1" y2="136.0" stroke="#334155" stroke-width="1.3"/><line x1="605.0" y1="102.0" x2="546.1" y2="136.0" stroke="#334155" stroke-width="1.3"/><line x1="605.0" y1="238.0" x2="605.0" y2="170.0" stroke="#334155" stroke-width="1.3"/><line x1="663.9" y1="136.0" x2="605.0" y2="170.0" stroke="#334155" stroke-width="1.3"/><line x1="546.1" y1="136.0" x2="605.0" y2="170.0" stroke="#334155" stroke-width="1.3"/><text x="605" y="265" text-anchor="middle" font-size="14" font-weight="bold" fill="#0f766e">(111)</text></svg>