<svg viewBox="0 0 600 340" xmlns="http://www.w3.org/2000/svg" font-family="Calibri, Arial, sans-serif"><defs><marker id="ar" markerWidth="9" markerHeight="9" refX="7" refY="3" orient="auto" markerUnits="strokeWidth"><path d="M0,0 L7,3 L0,6 Z" fill="#334155"/></marker><marker id="arT" markerWidth="9" markerHeight="9" refX="7" refY="3" orient="auto" markerUnits="strokeWidth"><path d="M0,0 L7,3 L0,6 Z" fill="#0f766e"/></marker><marker id="arR" markerWidth="9" markerHeight="9" refX="7" refY="3" orient="auto" markerUnits="strokeWidth"><path d="M0,0 L7,3 L0,6 Z" fill="#dc2626"/></marker><marker id="arB" markerWidth="9" markerHeight="9" refX="7" refY="3" orient="auto" markerUnits="strokeWidth"><path d="M0,0 L7,3 L0,6 Z" fill="#2563eb"/></marker></defs><rect x="20" y="40" width="560" height="295" rx="12" fill="#ffffff" stroke="#e2e8f0" stroke-width="1.5"/><text x="300" y="68" text-anchor="middle" font-size="16" font-weight="bold" fill="#1f2a37">Mobility vs temperature</text><text x="300" y="86" text-anchor="middle" font-size="12.5" fill="#64748b">lattice (phonon) and impurity scattering combine</text><line x1="80" y1="295" x2="548" y2="295" stroke="#334155" stroke-width="1.3" marker-end="url(#ar)"/><line x1="80" y1="295" x2="80" y2="114" stroke="#334155" stroke-width="1.3" marker-end="url(#ar)"/><text x="542" y="313" font-size="11.5" fill="#334155">T (log)</text><text x="72" y="120" text-anchor="end" font-size="11.5" font-style="italic" fill="#334155">μ (log)</text><polyline points="80.0,113.3 83.8,114.3 87.7,115.3 91.5,116.2 95.3,117.2 99.2,118.2 103.0,119.1 106.8,120.1 110.7,121.1 114.5,122.0 118.3,123.0 122.2,124.0 126.0,124.9 129.8,125.9 133.7,126.9 137.5,127.9 141.3,128.8 145.2,129.8 149.0,130.8 152.8,131.7 156.7,132.7 160.5,133.7 164.3,134.6 168.2,135.6 172.0,136.6 175.8,137.5 179.7,138.5 183.5,139.5 187.3,140.4 191.2,141.4 195.0,142.4 198.8,143.3 202.7,144.3 206.5,145.3 210.3,146.2 214.2,147.2 218.0,148.2 221.8,149.1 225.7,150.1 229.5,151.1 233.3,152.0 237.2,153.0 241.0,154.0 244.8,154.9 248.7,155.9 252.5,156.9 256.3,157.8 260.2,158.8 264.0,159.8 267.8,160.7 271.7,161.7 275.5,162.7 279.3,163.7 283.2,164.6 287.0,165.6 290.8,166.6 294.7,167.5 298.5,168.5 302.3,169.5 306.2,170.4 310.0,171.4 313.8,172.4 317.7,173.3 321.5,174.3 325.3,175.3 329.2,176.2 333.0,177.2 336.8,178.2 340.7,179.1 344.5,180.1 348.3,181.1 352.2,182.0 356.0,183.0 359.8,184.0 363.7,184.9 367.5,185.9 371.3,186.9 375.2,187.8 379.0,188.8 382.8,189.8 386.7,190.7 390.5,191.7 394.3,192.7 398.2,193.6 402.0,194.6 405.8,195.6 409.7,196.5 413.5,197.5 417.3,198.5 421.2,199.5 425.0,200.4 428.8,201.4 432.7,202.4 436.5,203.3 440.3,204.3 444.2,205.3 448.0,206.2 451.8,207.2 455.7,208.2 459.5,209.1 463.3,210.1 467.2,211.1 471.0,212.0 474.8,213.0 478.7,214.0 482.5,214.9 486.3,215.9 490.2,216.9 494.0,217.8 497.8,218.8 501.7,219.8 505.5,220.7 509.3,221.7 513.2,222.7 517.0,223.6 520.8,224.6 524.7,225.6 528.5,226.5 532.3,227.5 536.2,228.5 540.0,229.4" fill="none" stroke="#dc2626" stroke-width="2.2" stroke-dasharray="6 4"/><polyline points="80.0,288.2 83.8,287.2 87.7,286.3 91.5,285.3 95.3,284.3 99.2,283.4 103.0,282.4 106.8,281.4 110.7,280.5 114.5,279.5 118.3,278.5 122.2,277.6 126.0,276.6 129.8,275.6 133.7,274.7 137.5,273.7 141.3,272.7 145.2,271.8 149.0,270.8 152.8,269.8 156.7,268.8 160.5,267.9 164.3,266.9 168.2,265.9 172.0,265.0 175.8,264.0 179.7,263.0 183.5,262.1 187.3,261.1 191.2,260.1 195.0,259.2 198.8,258.2 202.7,257.2 206.5,256.3 210.3,255.3 214.2,254.3 218.0,253.4 221.8,252.4 225.7,251.4 229.5,250.5 233.3,249.5 237.2,248.5 241.0,247.6 244.8,246.6 248.7,245.6 252.5,244.7 256.3,243.7 260.2,242.7 264.0,241.8 267.8,240.8 271.7,239.8 275.5,238.9 279.3,237.9 283.2,236.9 287.0,236.0 290.8,235.0 294.7,234.0 298.5,233.0 302.3,232.1 306.2,231.1 310.0,230.1 313.8,229.2 317.7,228.2 321.5,227.2 325.3,226.3 329.2,225.3 333.0,224.3 336.8,223.4 340.7,222.4 344.5,221.4 348.3,220.5 352.2,219.5 356.0,218.5 359.8,217.6 363.7,216.6 367.5,215.6 371.3,214.7 375.2,213.7 379.0,212.7 382.8,211.8 386.7,210.8 390.5,209.8 394.3,208.9 398.2,207.9 402.0,206.9 405.8,206.0 409.7,205.0 413.5,204.0 417.3,203.1 421.2,202.1 425.0,201.1 428.8,200.2 432.7,199.2 436.5,198.2 440.3,197.3 444.2,196.3 448.0,195.3 451.8,194.3 455.7,193.4 459.5,192.4 463.3,191.4 467.2,190.5 471.0,189.5 474.8,188.5 478.7,187.6 482.5,186.6 486.3,185.6 490.2,184.7 494.0,183.7 497.8,182.7 501.7,181.8 505.5,180.8 509.3,179.8 513.2,178.9 517.0,177.9 520.8,176.9 524.7,176.0 528.5,175.0 532.3,174.0 536.2,173.1 540.0,172.1" fill="none" stroke="#2563eb" stroke-width="2.2" stroke-dasharray="6 4"/><polyline points="80.0,288.3 83.8,287.3 87.7,286.3 91.5,285.4 95.3,284.4 99.2,283.5 103.0,282.5 106.8,281.5 110.7,280.6 114.5,279.6 118.3,278.7 122.2,277.7 126.0,276.8 129.8,275.8 133.7,274.8 137.5,273.9 141.3,272.9 145.2,272.0 149.0,271.0 152.8,270.1 156.7,269.1 160.5,268.2 164.3,267.2 168.2,266.3 172.0,265.3 175.8,264.4 179.7,263.5 183.5,262.5 187.3,261.6 191.2,260.6 195.0,259.7 198.8,258.8 202.7,257.8 206.5,256.9 210.3,256.0 214.2,255.1 218.0,254.2 221.8,253.2 225.7,252.3 229.5,251.4 233.3,250.5 237.2,249.6 241.0,248.7 244.8,247.8 248.7,247.0 252.5,246.1 256.3,245.2 260.2,244.3 264.0,243.5 267.8,242.6 271.7,241.8 275.5,240.9 279.3,240.1 283.2,239.3 287.0,238.5 290.8,237.7 294.7,236.9 298.5,236.1 302.3,235.3 306.2,234.6 310.0,233.8 313.8,233.1 317.7,232.4 321.5,231.7 325.3,231.0 329.2,230.3 333.0,229.7 336.8,229.0 340.7,228.4 344.5,227.8 348.3,227.2 352.2,226.7 356.0,226.1 359.8,225.6 363.7,225.1 367.5,224.7 371.3,224.2 375.2,223.8 379.0,223.4 382.8,223.1 386.7,222.7 390.5,222.4 394.3,222.1 398.2,221.9 402.0,221.7 405.8,221.5 409.7,221.3 413.5,221.2 417.3,221.1 421.2,221.1 425.0,221.0 428.8,221.0 432.7,221.1 436.5,221.1 440.3,221.2 444.2,221.4 448.0,221.5 451.8,221.7 455.7,222.0 459.5,222.2 463.3,222.5 467.2,222.8 471.0,223.1 474.8,223.5 478.7,223.9 482.5,224.3 486.3,224.8 490.2,225.3 494.0,225.8 497.8,226.3 501.7,226.8 505.5,227.4 509.3,228.0 513.2,228.6 517.0,229.2 520.8,229.8 524.7,230.5 528.5,231.2 532.3,231.9 536.2,232.6 540.0,233.3" fill="none" stroke="#0d9488" stroke-width="2.2"/><text x="460" y="201" font-size="11" fill="#dc2626">μ_L ~ T^(−3/2)</text><text x="140" y="265" font-size="11" fill="#2563eb">μ_I ~ T^(3/2)</text><text x="300" y="258" font-size="11" font-weight="bold" fill="#0d9488">μ (Matthiessen)</text><text x="300" y="322" text-anchor="middle" font-size="12" fill="#475569">Impurity scattering dominates at low T, phonon scattering at high T.</text></svg>