<svg viewBox="0 0 600 340" xmlns="http://www.w3.org/2000/svg" font-family="Calibri, Arial, sans-serif"><defs><marker id="ar" markerWidth="9" markerHeight="9" refX="7" refY="3" orient="auto" markerUnits="strokeWidth"><path d="M0,0 L7,3 L0,6 Z" fill="#334155"/></marker><marker id="arR" markerWidth="9" markerHeight="9" refX="7" refY="3" orient="auto" markerUnits="strokeWidth"><path d="M0,0 L7,3 L0,6 Z" fill="#dc2626"/></marker><marker id="arO" markerWidth="9" markerHeight="9" refX="7" refY="3" orient="auto" markerUnits="strokeWidth"><path d="M0,0 L7,3 L0,6 Z" fill="#b45309"/></marker><marker id="arRs" markerWidth="9" markerHeight="9" refX="2" refY="3" orient="auto" markerUnits="strokeWidth"><path d="M7,0 L0,3 L7,6 Z" fill="#b45309"/></marker></defs><rect x="20" y="40" width="560" height="295" rx="12" fill="#ffffff" stroke="#e2e8f0" stroke-width="1.5"/><text x="300" y="66" text-anchor="middle" font-size="16" font-weight="bold" fill="#1f2a37">Ohmic contact: tunnelling through a thin barrier</text><text x="300" y="84" text-anchor="middle" font-size="12.5" fill="#64748b">heavy n⁺ doping → narrow barrier → carriers tunnel</text><rect x="70" y="185" width="115" height="105" fill="#94a3b8" fill-opacity="0.45" stroke="#64748b" stroke-width="1"/><text x="128" y="245" text-anchor="middle" font-size="11" fill="#475569">metal</text><line x1="70" y1="185" x2="185" y2="185" stroke="#1f2a37" stroke-width="2"/><line x1="185" y1="185" x2="540" y2="185" stroke="#1f2a37" stroke-width="1.4" stroke-dasharray="6 4"/><text x="544" y="189" font-size="11.5" fill="#1f2a37">E<tspan baseline-shift="sub" font-size="9">F</tspan></text><polyline points="185.0,120.0 185.3,121.0 185.7,122.0 186.1,122.9 186.4,123.9 186.8,124.8 187.1,125.8 187.4,126.7 187.8,127.6 188.2,128.5 188.5,129.4 188.8,130.2 189.2,131.1 189.6,131.9 189.9,132.8 190.2,133.6 190.6,134.4 190.9,135.2 191.3,136.0 191.7,136.7 192.0,137.5 192.3,138.2 192.7,139.0 193.1,139.7 193.4,140.4 193.8,141.1 194.1,141.8 194.4,142.4 194.8,143.1 195.2,143.7 195.5,144.4 195.8,145.0 196.2,145.6 196.6,146.2 196.9,146.8 197.2,147.3 197.6,147.9 197.9,148.4 198.3,149.0 198.7,149.5 199.0,150.0 199.3,150.5 199.7,151.0 200.1,151.4 200.4,151.9 200.8,152.3 201.1,152.8 201.4,153.2 201.8,153.6 202.2,154.0 202.5,154.4 202.8,154.7 203.2,155.1 203.6,155.4 203.9,155.8 204.2,156.1 204.6,156.4 204.9,156.7 205.3,157.0 205.7,157.2 206.0,157.5 206.3,157.7 206.7,158.0 207.1,158.2 207.4,158.4 207.8,158.6 208.1,158.8 208.4,158.9 208.8,159.1 209.2,159.2 209.5,159.4 209.8,159.5 210.2,159.6 210.6,159.7 210.9,159.8 211.2,159.8 211.6,159.9 211.9,159.9 212.3,160.0 212.7,160.0 213.0,160.0 540,160.0" fill="none" stroke="#0f766e" stroke-width="2.4"/><polyline points="185.0,232.0 185.3,233.0 185.7,234.0 186.1,234.9 186.4,235.9 186.8,236.8 187.1,237.8 187.4,238.7 187.8,239.6 188.2,240.5 188.5,241.4 188.8,242.2 189.2,243.1 189.6,243.9 189.9,244.8 190.2,245.6 190.6,246.4 190.9,247.2 191.3,248.0 191.7,248.7 192.0,249.5 192.3,250.2 192.7,251.0 193.1,251.7 193.4,252.4 193.8,253.1 194.1,253.8 194.4,254.4 194.8,255.1 195.2,255.7 195.5,256.4 195.8,257.0 196.2,257.6 196.6,258.2 196.9,258.8 197.2,259.3 197.6,259.9 197.9,260.4 198.3,261.0 198.7,261.5 199.0,262.0 199.3,262.5 199.7,263.0 200.1,263.4 200.4,263.9 200.8,264.3 201.1,264.8 201.4,265.2 201.8,265.6 202.2,266.0 202.5,266.4 202.8,266.7 203.2,267.1 203.6,267.4 203.9,267.8 204.2,268.1 204.6,268.4 204.9,268.7 205.3,269.0 205.7,269.2 206.0,269.5 206.3,269.7 206.7,270.0 207.1,270.2 207.4,270.4 207.8,270.6 208.1,270.8 208.4,270.9 208.8,271.1 209.2,271.2 209.5,271.4 209.8,271.5 210.2,271.6 210.6,271.7 210.9,271.8 211.2,271.8 211.6,271.9 211.9,271.9 212.3,272.0 212.7,272.0 213.0,272.0 540,272.0" fill="none" stroke="#7c3aed" stroke-width="2.4"/><text x="544" y="164" font-size="11.5" fill="#0f766e">E<tspan baseline-shift="sub" font-size="9">c</tspan></text><text x="544" y="276" font-size="11.5" fill="#7c3aed">E<tspan baseline-shift="sub" font-size="9">v</tspan></text><text x="362" y="300" text-anchor="middle" font-size="11" fill="#475569">n⁺-type semiconductor</text><line x1="190" y1="185" x2="190" y2="120" stroke="#dc2626" stroke-width="2" marker-start="url(#arRs)" marker-end="url(#arR)"/><text x="195" y="156" font-size="11.5" font-weight="bold" fill="#dc2626">φ<tspan baseline-shift="sub" font-size="9">B</tspan></text><line x1="219" y1="179" x2="183" y2="179" stroke="#b45309" stroke-width="2.2" marker-end="url(#arO)"/><text x="199" y="173" text-anchor="middle" font-size="10.5" fill="#b45309">e⁻ tunnelling</text><text x="243" y="114" font-size="10.5" fill="#475569">thin barrier</text><text x="300" y="322" text-anchor="middle" font-size="12" fill="#475569">Heavy doping makes the barrier thin enough to tunnel through → low-resistance ohmic contact.</text></svg>