<svg viewBox="0 0 620 340" xmlns="http://www.w3.org/2000/svg" font-family="Calibri, Arial, sans-serif"><defs><marker id="ar" markerWidth="9" markerHeight="9" refX="7" refY="3" orient="auto" markerUnits="strokeWidth"><path d="M0,0 L7,3 L0,6 Z" fill="#334155"/></marker><marker id="arT" markerWidth="9" markerHeight="9" refX="7" refY="3" orient="auto" markerUnits="strokeWidth"><path d="M0,0 L7,3 L0,6 Z" fill="#0f766e"/></marker><marker id="arR" markerWidth="9" markerHeight="9" refX="7" refY="3" orient="auto" markerUnits="strokeWidth"><path d="M0,0 L7,3 L0,6 Z" fill="#dc2626"/></marker><marker id="arO" markerWidth="9" markerHeight="9" refX="7" refY="3" orient="auto" markerUnits="strokeWidth"><path d="M0,0 L7,3 L0,6 Z" fill="#b45309"/></marker><marker id="arB" markerWidth="9" markerHeight="9" refX="7" refY="3" orient="auto" markerUnits="strokeWidth"><path d="M0,0 L7,3 L0,6 Z" fill="#2563eb"/></marker></defs><rect x="20" y="40" width="580" height="295" rx="12" fill="#ffffff" stroke="#e2e8f0" stroke-width="1.5"/><text x="310" y="66" text-anchor="middle" font-size="16" font-weight="bold" fill="#1f2a37">Piezoresistive pressure sensor</text><text x="310" y="84" text-anchor="middle" font-size="12.5" fill="#64748b">Δρ/ρ = Σ π_ij σ_j  —  a MEMS device</text><rect x="70" y="150" width="26" height="100" fill="#94a3b8" fill-opacity="0.5" stroke="#334155" stroke-width="1.2"/><rect x="254" y="150" width="26" height="100" fill="#94a3b8" fill-opacity="0.5" stroke="#334155" stroke-width="1.2"/><rect x="70" y="250" width="210" height="16" fill="#94a3b8" fill-opacity="0.5" stroke="#334155" stroke-width="1.2"/><text x="175.0" y="234" text-anchor="middle" font-size="11" fill="#64748b">cavity</text><path d="M96,150 Q175.0,174 254,150" fill="#14b8a6" fill-opacity="0.25" stroke="#0d9488" stroke-width="2"/><path d="M96,150 Q175.0,174 254,150 L254,136 Q175.0,160 96,136 Z" fill="#14b8a6" fill-opacity="0.18" stroke="#0d9488" stroke-width="1.2"/><text x="175.0" y="194" text-anchor="middle" font-size="10.5" fill="#0f766e">Si diaphragm</text><rect x="106" y="133" width="16" height="7" rx="2" fill="#dc2626"/><rect x="228" y="133" width="16" height="7" rx="2" fill="#dc2626"/><text x="114" y="124" text-anchor="middle" font-size="9.5" fill="#dc2626">R</text><line x1="110" y1="106" x2="110" y2="128" stroke="#b45309" stroke-width="2" marker-end="url(#arO)"/><line x1="136" y1="106" x2="136" y2="128" stroke="#b45309" stroke-width="2" marker-end="url(#arO)"/><line x1="162" y1="106" x2="162" y2="128" stroke="#b45309" stroke-width="2" marker-end="url(#arO)"/><line x1="188" y1="106" x2="188" y2="128" stroke="#b45309" stroke-width="2" marker-end="url(#arO)"/><line x1="214" y1="106" x2="214" y2="128" stroke="#b45309" stroke-width="2" marker-end="url(#arO)"/><line x1="240" y1="106" x2="240" y2="128" stroke="#b45309" stroke-width="2" marker-end="url(#arO)"/><text x="175.0" y="100" text-anchor="middle" font-size="12" font-weight="bold" fill="#b45309">pressure P</text><line x1="380" y1="118" x2="320" y2="178" stroke="#334155" stroke-width="1.6"/><line x1="380" y1="118" x2="440" y2="178" stroke="#334155" stroke-width="1.6"/><line x1="380" y1="238" x2="320" y2="178" stroke="#334155" stroke-width="1.6"/><line x1="380" y1="238" x2="440" y2="178" stroke="#334155" stroke-width="1.6"/><rect x="341" y="142" width="18" height="12" rx="2" fill="#dc2626" fill-opacity="0.85"/><rect x="401" y="202" width="18" height="12" rx="2" fill="#dc2626" fill-opacity="0.85"/><rect x="401" y="142" width="18" height="12" rx="2" fill="#334155" fill-opacity="0.85"/><rect x="341" y="202" width="18" height="12" rx="2" fill="#334155" fill-opacity="0.85"/><text x="380" y="110" text-anchor="middle" font-size="10.5" fill="#475569">V+</text><text x="380" y="254" text-anchor="middle" font-size="10.5" fill="#475569">GND</text><text x="306" y="182" text-anchor="middle" font-size="11" font-weight="bold" fill="#2563eb">V_out</text><text x="456" y="182" text-anchor="middle" font-size="11" font-weight="bold" fill="#2563eb">+</text><text x="380" y="282" text-anchor="middle" font-size="11" fill="#475569">Wheatstone bridge</text><text x="310" y="322" text-anchor="middle" font-size="12" fill="#475569">Pressure strains the diaphragm; piezoresistors unbalance the bridge → voltage.</text></svg>