<svg viewBox="0 0 880 360" xmlns="http://www.w3.org/2000/svg" font-family="Calibri, Arial, sans-serif"><defs><marker id="ar" markerWidth="9" markerHeight="9" refX="7" refY="3" orient="auto" markerUnits="strokeWidth"><path d="M0,0 L7,3 L0,6 Z" fill="#334155"/></marker><marker id="arR" markerWidth="9" markerHeight="9" refX="7" refY="3" orient="auto" markerUnits="strokeWidth"><path d="M0,0 L7,3 L0,6 Z" fill="#dc2626"/></marker><marker id="arRs" markerWidth="9" markerHeight="9" refX="2" refY="3" orient="auto" markerUnits="strokeWidth"><path d="M7,0 L0,3 L7,6 Z" fill="#dc2626"/></marker><marker id="arT" markerWidth="9" markerHeight="9" refX="7" refY="3" orient="auto" markerUnits="strokeWidth"><path d="M0,0 L7,3 L0,6 Z" fill="#0f766e"/></marker><marker id="arB" markerWidth="9" markerHeight="9" refX="7" refY="3" orient="auto" markerUnits="strokeWidth"><path d="M0,0 L7,3 L0,6 Z" fill="#b45309"/></marker></defs><rect x="20" y="40" width="400" height="300" rx="12" fill="#ffffff" stroke="#e2e8f0" stroke-width="1.5"/><text x="220" y="68" text-anchor="middle" font-size="16" font-weight="bold" fill="#1f2a37">Extended zone</text><text x="220" y="86" text-anchor="middle" font-size="12.5" fill="#64748b">free-electron parabola E=ħ²k²/2m</text><line x1="230.0" y1="300" x2="230.0" y2="96" stroke="#334155" stroke-width="1.3" marker-end="url(#ar)"/><line x1="74" y1="300" x2="386" y2="300" stroke="#334155" stroke-width="1.3" marker-end="url(#ar)"/><text x="238.0" y="107" font-size="12" fill="#334155">E</text><text x="386.0" y="315" font-size="12" font-style="italic" fill="#334155">k</text><line x1="180.0" y1="80" x2="180.0" y2="300" stroke="#94a3b8" stroke-width="1.2" stroke-dasharray="5 4"/><line x1="280.0" y1="80" x2="280.0" y2="300" stroke="#94a3b8" stroke-width="1.2" stroke-dasharray="5 4"/><text x="280.0" y="331" text-anchor="middle" font-size="10.5" fill="#475569">π/a</text><text x="180.0" y="331" text-anchor="middle" font-size="10.5" fill="#475569">−π/a</text><polyline points="80.0,80.0 81.2,83.7 82.5,87.3 83.8,90.9 85.0,94.4 86.2,98.0 87.5,101.4 88.7,104.9 90.0,108.4 91.2,111.8 92.5,115.1 93.8,118.5 95.0,121.8 96.2,125.1 97.5,128.3 98.8,131.6 100.0,134.8 101.2,137.9 102.5,141.1 103.8,144.2 105.0,147.2 106.2,150.3 107.5,153.3 108.8,156.3 110.0,159.2 111.2,162.1 112.5,165.0 113.8,167.9 115.0,170.7 116.2,173.5 117.5,176.2 118.8,179.0 120.0,181.7 121.2,184.4 122.5,187.0 123.8,189.6 125.0,192.2 126.2,194.8 127.5,197.3 128.8,199.8 130.0,202.2 131.2,204.7 132.5,207.1 133.8,209.4 135.0,211.8 136.2,214.1 137.5,216.3 138.8,218.6 140.0,220.8 141.2,223.0 142.5,225.1 143.8,227.3 145.0,229.4 146.2,231.4 147.5,233.4 148.8,235.5 150.0,237.4 151.2,239.4 152.5,241.3 153.8,243.2 155.0,245.0 156.2,246.8 157.5,248.6 158.8,250.4 160.0,252.1 161.2,253.8 162.5,255.4 163.8,257.1 165.0,258.7 166.2,260.3 167.5,261.8 168.8,263.3 170.0,264.8 171.2,266.3 172.5,267.7 173.8,269.1 175.0,270.4 176.2,271.8 177.5,273.1 178.8,274.3 180.0,275.6 181.2,276.8 182.5,277.9 183.8,279.1 185.0,280.2 186.2,281.3 187.5,282.3 188.8,283.4 190.0,284.4 191.2,285.3 192.5,286.2 193.8,287.2 195.0,288.0 196.2,288.9 197.5,289.7 198.8,290.5 200.0,291.2 201.2,291.9 202.5,292.6 203.8,293.3 205.0,293.9 206.2,294.5 207.5,295.1 208.8,295.6 210.0,296.1 211.2,296.6 212.5,297.0 213.8,297.4 215.0,297.8 216.2,298.2 217.5,298.5 218.8,298.8 220.0,299.0 221.2,299.3 222.5,299.4 223.8,299.6 225.0,299.8 226.2,299.9 227.5,299.9 228.8,300.0 230.0,300.0 231.2,300.0 232.5,299.9 233.8,299.9 235.0,299.8 236.2,299.6 237.5,299.4 238.8,299.3 240.0,299.0 241.2,298.8 242.5,298.5 243.8,298.2 245.0,297.8 246.2,297.4 247.5,297.0 248.8,296.6 250.0,296.1 251.2,295.6 252.5,295.1 253.8,294.5 255.0,293.9 256.2,293.3 257.5,292.6 258.8,291.9 260.0,291.2 261.2,290.5 262.5,289.7 263.8,288.9 265.0,288.0 266.2,287.2 267.5,286.2 268.8,285.3 270.0,284.4 271.2,283.4 272.5,282.3 273.8,281.3 275.0,280.2 276.2,279.1 277.5,277.9 278.8,276.8 280.0,275.6 281.2,274.3 282.5,273.1 283.8,271.8 285.0,270.4 286.2,269.1 287.5,267.7 288.8,266.3 290.0,264.8 291.2,263.3 292.5,261.8 293.8,260.3 295.0,258.7 296.2,257.1 297.5,255.5 298.8,253.8 300.0,252.1 301.2,250.4 302.5,248.6 303.8,246.8 305.0,245.0 306.2,243.2 307.5,241.3 308.8,239.4 310.0,237.4 311.2,235.5 312.5,233.4 313.8,231.4 315.0,229.4 316.2,227.3 317.5,225.1 318.8,223.0 320.0,220.8 321.2,218.6 322.5,216.3 323.8,214.1 325.0,211.8 326.2,209.4 327.5,207.1 328.8,204.7 330.0,202.2 331.2,199.8 332.5,197.3 333.8,194.8 335.0,192.2 336.2,189.6 337.5,187.0 338.8,184.4 340.0,181.7 341.2,179.0 342.5,176.2 343.8,173.5 345.0,170.7 346.2,167.9 347.5,165.0 348.8,162.1 350.0,159.2 351.2,156.3 352.5,153.3 353.8,150.3 355.0,147.2 356.2,144.2 357.5,141.1 358.8,137.9 360.0,134.8 361.2,131.6 362.5,128.3 363.8,125.1 365.0,121.8 366.2,118.5 367.5,115.1 368.8,111.8 370.0,108.4 371.2,104.9 372.5,101.4 373.8,98.0 375.0,94.4 376.2,90.9 377.5,87.3 378.8,83.7 380.0,80.0" fill="none" stroke="#0d9488" stroke-width="2.4"/><rect x="460" y="40" width="400" height="300" rx="12" fill="#ffffff" stroke="#e2e8f0" stroke-width="1.5"/><text x="660" y="68" text-anchor="middle" font-size="16" font-weight="bold" fill="#1f2a37">Reduced zone</text><text x="660" y="86" text-anchor="middle" font-size="12.5" fill="#64748b">folded into 1st BZ [−π/a, π/a]</text><line x1="670.0" y1="300" x2="670.0" y2="96" stroke="#334155" stroke-width="1.3" marker-end="url(#ar)"/><line x1="514" y1="300" x2="826" y2="300" stroke="#334155" stroke-width="1.3" marker-end="url(#ar)"/><text x="678.0" y="107" font-size="12" fill="#334155">E</text><text x="826.0" y="315" font-size="12" font-style="italic" fill="#334155">k</text><line x1="520.0" y1="80" x2="520.0" y2="300" stroke="#94a3b8" stroke-width="1.2" stroke-dasharray="5 4"/><line x1="820.0" y1="80" x2="820.0" y2="300" stroke="#94a3b8" stroke-width="1.2" stroke-dasharray="5 4"/><text x="820.0" y="331" text-anchor="middle" font-size="10.5" fill="#475569">π/a</text><text x="520.0" y="331" text-anchor="middle" font-size="10.5" fill="#475569">−π/a</text><polyline points="520.0,275.6 522.5,276.4 525.0,277.2 527.5,277.9 530.0,278.7 532.5,279.5 535.0,280.2 537.5,280.9 540.0,281.6 542.5,282.3 545.0,283.0 547.5,283.7 550.0,284.4 552.5,285.0 555.0,285.6 557.5,286.2 560.0,286.9 562.5,287.4 565.0,288.0 567.5,288.6 570.0,289.1 572.5,289.7 575.0,290.2 577.5,290.7 580.0,291.2 582.5,291.7 585.0,292.2 587.5,292.6 590.0,293.0 592.5,293.5 595.0,293.9 597.5,294.3 600.0,294.7 602.5,295.1 605.0,295.4 607.5,295.8 610.0,296.1 612.5,296.4 615.0,296.7 617.5,297.0 620.0,297.3 622.5,297.5 625.0,297.8 627.5,298.0 630.0,298.3 632.5,298.5 635.0,298.7 637.5,298.9 640.0,299.0 642.5,299.2 645.0,299.3 647.5,299.4 650.0,299.6 652.5,299.7 655.0,299.8 657.5,299.8 660.0,299.9 662.5,299.9 665.0,300.0 667.5,300.0 670.0,300.0 672.5,300.0 675.0,300.0 677.5,299.9 680.0,299.9 682.5,299.8 685.0,299.8 687.5,299.7 690.0,299.6 692.5,299.4 695.0,299.3 697.5,299.2 700.0,299.0 702.5,298.9 705.0,298.7 707.5,298.5 710.0,298.3 712.5,298.0 715.0,297.8 717.5,297.5 720.0,297.3 722.5,297.0 725.0,296.7 727.5,296.4 730.0,296.1 732.5,295.8 735.0,295.4 737.5,295.1 740.0,294.7 742.5,294.3 745.0,293.9 747.5,293.5 750.0,293.0 752.5,292.6 755.0,292.2 757.5,291.7 760.0,291.2 762.5,290.7 765.0,290.2 767.5,289.7 770.0,289.1 772.5,288.6 775.0,288.0 777.5,287.4 780.0,286.9 782.5,286.2 785.0,285.6 787.5,285.0 790.0,284.4 792.5,283.7 795.0,283.0 797.5,282.3 800.0,281.6 802.5,280.9 805.0,280.2 807.5,279.5 810.0,278.7 812.5,277.9 815.0,277.2 817.5,276.4 820.0,275.6" fill="none" stroke="#0d9488" stroke-width="2.2"/><polyline points="520.0,275.6 522.5,274.7 525.0,273.9 527.5,273.1 530.0,272.2 532.5,271.3 535.0,270.4 537.5,269.5 540.0,268.6 542.5,267.7 545.0,266.7 547.5,265.8 550.0,264.8 552.5,263.8 555.0,262.8 557.5,261.8 560.0,260.8 562.5,259.7 565.0,258.7 567.5,257.6 570.0,256.5 572.5,255.4 575.0,254.3 577.5,253.2 580.0,252.1 582.5,250.9 585.0,249.8 587.5,248.6 590.0,247.4 592.5,246.2 595.0,245.0 597.5,243.8 600.0,242.5 602.5,241.3 605.0,240.0 607.5,238.7 610.0,237.4 612.5,236.1 615.0,234.8 617.5,233.4 620.0,232.1 622.5,230.7 625.0,229.4 627.5,228.0 630.0,226.6 632.5,225.1 635.0,223.7 637.5,222.3 640.0,220.8 642.5,219.3 645.0,217.8 647.5,216.3 650.0,214.8 652.5,213.3 655.0,211.8 657.5,210.2 660.0,208.6 662.5,207.1 665.0,205.5 667.5,203.8 670.0,202.2 672.5,200.6 675.0,198.9 677.5,197.3 680.0,195.6 682.5,193.9 685.0,192.2 687.5,190.5 690.0,188.8 692.5,187.0 695.0,185.2 697.5,183.5 700.0,181.7 702.5,179.9 705.0,178.1 707.5,176.2 710.0,174.4 712.5,172.6 715.0,170.7 717.5,168.8 720.0,166.9 722.5,165.0 725.0,163.1 727.5,161.1 730.0,159.2 732.5,157.2 735.0,155.3 737.5,153.3 740.0,151.3 742.5,149.3 745.0,147.2 747.5,145.2 750.0,143.1 752.5,141.1 755.0,139.0 757.5,136.9 760.0,134.8 762.5,132.6 765.0,130.5 767.5,128.3 770.0,126.2 772.5,124.0 775.0,121.8 777.5,119.6 780.0,117.4 782.5,115.1 785.0,112.9 787.5,110.6 790.0,108.4 792.5,106.1 795.0,103.8 797.5,101.4 800.0,99.1 802.5,96.8 805.0,94.4 807.5,92.1 810.0,89.7 812.5,87.3 815.0,84.9 817.5,82.4 820.0,80.0" fill="none" stroke="#7c3aed" stroke-width="2.2"/><polyline points="520.0,80.0 522.5,82.4 525.0,84.9 527.5,87.3 530.0,89.7 532.5,92.1 535.0,94.4 537.5,96.8 540.0,99.1 542.5,101.4 545.0,103.8 547.5,106.1 550.0,108.4 552.5,110.6 555.0,112.9 557.5,115.1 560.0,117.4 562.5,119.6 565.0,121.8 567.5,124.0 570.0,126.2 572.5,128.3 575.0,130.5 577.5,132.6 580.0,134.8 582.5,136.9 585.0,139.0 587.5,141.1 590.0,143.1 592.5,145.2 595.0,147.2 597.5,149.3 600.0,151.3 602.5,153.3 605.0,155.3 607.5,157.2 610.0,159.2 612.5,161.1 615.0,163.1 617.5,165.0 620.0,166.9 622.5,168.8 625.0,170.7 627.5,172.6 630.0,174.4 632.5,176.2 635.0,178.1 637.5,179.9 640.0,181.7 642.5,183.5 645.0,185.2 647.5,187.0 650.0,188.8 652.5,190.5 655.0,192.2 657.5,193.9 660.0,195.6 662.5,197.3 665.0,198.9 667.5,200.6 670.0,202.2 672.5,203.8 675.0,205.5 677.5,207.1 680.0,208.6 682.5,210.2 685.0,211.8 687.5,213.3 690.0,214.8 692.5,216.3 695.0,217.8 697.5,219.3 700.0,220.8 702.5,222.3 705.0,223.7 707.5,225.1 710.0,226.6 712.5,228.0 715.0,229.4 717.5,230.7 720.0,232.1 722.5,233.4 725.0,234.8 727.5,236.1 730.0,237.4 732.5,238.7 735.0,240.0 737.5,241.3 740.0,242.5 742.5,243.8 745.0,245.0 747.5,246.2 750.0,247.4 752.5,248.6 755.0,249.8 757.5,250.9 760.0,252.1 762.5,253.2 765.0,254.3 767.5,255.4 770.0,256.5 772.5,257.6 775.0,258.7 777.5,259.7 780.0,260.8 782.5,261.8 785.0,262.8 787.5,263.8 790.0,264.8 792.5,265.8 795.0,266.7 797.5,267.7 800.0,268.6 802.5,269.5 805.0,270.4 807.5,271.3 810.0,272.2 812.5,273.1 815.0,273.9 817.5,274.7 820.0,275.6" fill="none" stroke="#7c3aed" stroke-width="2.2"/><text x="440" y="352" text-anchor="middle" font-size="12" fill="#475569">Because E(k) is periodic with period 2π/a, all bands fold into the first Brillouin zone (reduced-zone scheme).</text></svg>