<svg viewBox="0 0 600 340" xmlns="http://www.w3.org/2000/svg" font-family="Calibri, Arial, sans-serif"><defs><marker id="ar" markerWidth="9" markerHeight="9" refX="7" refY="3" orient="auto" markerUnits="strokeWidth"><path d="M0,0 L7,3 L0,6 Z" fill="#334155"/></marker><marker id="arR" markerWidth="9" markerHeight="9" refX="7" refY="3" orient="auto" markerUnits="strokeWidth"><path d="M0,0 L7,3 L0,6 Z" fill="#dc2626"/></marker><marker id="arO" markerWidth="9" markerHeight="9" refX="7" refY="3" orient="auto" markerUnits="strokeWidth"><path d="M0,0 L7,3 L0,6 Z" fill="#b45309"/></marker><marker id="arRs" markerWidth="9" markerHeight="9" refX="2" refY="3" orient="auto" markerUnits="strokeWidth"><path d="M7,0 L0,3 L7,6 Z" fill="#b45309"/></marker></defs><rect x="20" y="40" width="560" height="295" rx="12" fill="#ffffff" stroke="#e2e8f0" stroke-width="1.5"/><text x="300" y="66" text-anchor="middle" font-size="16" font-weight="bold" fill="#1f2a37">Schottky barrier &amp; thermionic emission</text><text x="300" y="84" text-anchor="middle" font-size="12.5" fill="#64748b">metal–(n)semiconductor at equilibrium</text><rect x="70" y="185" width="115" height="105" fill="#94a3b8" fill-opacity="0.45" stroke="#64748b" stroke-width="1"/><text x="128" y="245" text-anchor="middle" font-size="11" fill="#475569">metal</text><line x1="70" y1="185" x2="185" y2="185" stroke="#1f2a37" stroke-width="2"/><line x1="185" y1="185" x2="540" y2="185" stroke="#1f2a37" stroke-width="1.4" stroke-dasharray="6 4"/><text x="544" y="189" font-size="11.5" fill="#1f2a37">E<tspan baseline-shift="sub" font-size="9">F</tspan></text><polyline points="185.0,120.0 186.9,121.0 188.8,122.0 190.6,122.9 192.5,123.9 194.4,124.8 196.2,125.8 198.1,126.7 200.0,127.6 201.9,128.5 203.8,129.4 205.6,130.2 207.5,131.1 209.4,131.9 211.2,132.8 213.1,133.6 215.0,134.4 216.9,135.2 218.8,136.0 220.6,136.7 222.5,137.5 224.4,138.2 226.2,139.0 228.1,139.7 230.0,140.4 231.9,141.1 233.8,141.8 235.6,142.4 237.5,143.1 239.4,143.7 241.2,144.4 243.1,145.0 245.0,145.6 246.9,146.2 248.8,146.8 250.6,147.3 252.5,147.9 254.4,148.4 256.2,149.0 258.1,149.5 260.0,150.0 261.9,150.5 263.8,151.0 265.6,151.4 267.5,151.9 269.4,152.3 271.2,152.8 273.1,153.2 275.0,153.6 276.9,154.0 278.8,154.4 280.6,154.7 282.5,155.1 284.4,155.4 286.2,155.8 288.1,156.1 290.0,156.4 291.9,156.7 293.8,157.0 295.6,157.2 297.5,157.5 299.4,157.7 301.2,158.0 303.1,158.2 305.0,158.4 306.9,158.6 308.8,158.8 310.6,158.9 312.5,159.1 314.4,159.2 316.2,159.4 318.1,159.5 320.0,159.6 321.9,159.7 323.8,159.8 325.6,159.8 327.5,159.9 329.4,159.9 331.2,160.0 333.1,160.0 335.0,160.0 540,160.0" fill="none" stroke="#0f766e" stroke-width="2.4"/><polyline points="185.0,232.0 186.9,233.0 188.8,234.0 190.6,234.9 192.5,235.9 194.4,236.8 196.2,237.8 198.1,238.7 200.0,239.6 201.9,240.5 203.8,241.4 205.6,242.2 207.5,243.1 209.4,243.9 211.2,244.8 213.1,245.6 215.0,246.4 216.9,247.2 218.8,248.0 220.6,248.7 222.5,249.5 224.4,250.2 226.2,251.0 228.1,251.7 230.0,252.4 231.9,253.1 233.8,253.8 235.6,254.4 237.5,255.1 239.4,255.7 241.2,256.4 243.1,257.0 245.0,257.6 246.9,258.2 248.8,258.8 250.6,259.3 252.5,259.9 254.4,260.4 256.2,261.0 258.1,261.5 260.0,262.0 261.9,262.5 263.8,263.0 265.6,263.4 267.5,263.9 269.4,264.3 271.2,264.8 273.1,265.2 275.0,265.6 276.9,266.0 278.8,266.4 280.6,266.7 282.5,267.1 284.4,267.4 286.2,267.8 288.1,268.1 290.0,268.4 291.9,268.7 293.8,269.0 295.6,269.2 297.5,269.5 299.4,269.7 301.2,270.0 303.1,270.2 305.0,270.4 306.9,270.6 308.8,270.8 310.6,270.9 312.5,271.1 314.4,271.2 316.2,271.4 318.1,271.5 320.0,271.6 321.9,271.7 323.8,271.8 325.6,271.8 327.5,271.9 329.4,271.9 331.2,272.0 333.1,272.0 335.0,272.0 540,272.0" fill="none" stroke="#7c3aed" stroke-width="2.4"/><text x="544" y="164" font-size="11.5" fill="#0f766e">E<tspan baseline-shift="sub" font-size="9">c</tspan></text><text x="544" y="276" font-size="11.5" fill="#7c3aed">E<tspan baseline-shift="sub" font-size="9">v</tspan></text><text x="362" y="300" text-anchor="middle" font-size="11" fill="#475569">n-type semiconductor</text><line x1="190" y1="185" x2="190" y2="120" stroke="#dc2626" stroke-width="2" marker-start="url(#arRs)" marker-end="url(#arR)"/><text x="195" y="156" font-size="11.5" font-weight="bold" fill="#dc2626">φ<tspan baseline-shift="sub" font-size="9">B</tspan></text><line x1="335" y1="160" x2="335" y2="120" stroke="#b45309" stroke-width="2" marker-start="url(#arRs)" marker-end="url(#arO)"/><text x="341" y="144" font-size="10.5" fill="#b45309">qV<tspan baseline-shift="sub" font-size="9">bi</tspan></text><line x1="185" y1="290" x2="335" y2="290" stroke="#334155" stroke-width="1.3" marker-start="url(#arRs)" marker-end="url(#ar)"/><text x="260" y="286" text-anchor="middle" font-size="10.5" fill="#334155">W</text><path d="M290,160 Q230,96 188,118" fill="none" stroke="#dc2626" stroke-width="2" marker-end="url(#arR)"/><text x="257" y="96" text-anchor="middle" font-size="10.5" fill="#dc2626">e⁻ (thermionic)</text><text x="300" y="322" text-anchor="middle" font-size="12" fill="#475569">Fermi levels align; bands bend by qV_bi. Current = thermionic emission over φ_B.</text></svg>