<svg viewBox="0 0 600 330" xmlns="http://www.w3.org/2000/svg" font-family="Calibri, Arial, sans-serif"><defs><marker id="ar" markerWidth="9" markerHeight="9" refX="7" refY="3" orient="auto" markerUnits="strokeWidth"><path d="M0,0 L7,3 L0,6 Z" fill="#334155"/></marker><marker id="arT" markerWidth="9" markerHeight="9" refX="7" refY="3" orient="auto" markerUnits="strokeWidth"><path d="M0,0 L7,3 L0,6 Z" fill="#0f766e"/></marker><marker id="arR" markerWidth="9" markerHeight="9" refX="7" refY="3" orient="auto" markerUnits="strokeWidth"><path d="M0,0 L7,3 L0,6 Z" fill="#dc2626"/></marker><marker id="arO" markerWidth="9" markerHeight="9" refX="7" refY="3" orient="auto" markerUnits="strokeWidth"><path d="M0,0 L7,3 L0,6 Z" fill="#b45309"/></marker><marker id="arB" markerWidth="9" markerHeight="9" refX="7" refY="3" orient="auto" markerUnits="strokeWidth"><path d="M0,0 L7,3 L0,6 Z" fill="#2563eb"/></marker></defs><rect x="20" y="40" width="560" height="285" rx="12" fill="#ffffff" stroke="#e2e8f0" stroke-width="1.5"/><text x="300" y="68" text-anchor="middle" font-size="16" font-weight="bold" fill="#1f2a37">Tauc plot — extracting the optical gap</text><text x="300" y="86" text-anchor="middle" font-size="12.5" fill="#64748b">extrapolate (αħω)^(1/n) → 0 gives E_g</text><line x1="90" y1="290" x2="548" y2="290" stroke="#334155" stroke-width="1.3" marker-end="url(#ar)"/><line x1="90" y1="290" x2="90" y2="104" stroke="#334155" stroke-width="1.3" marker-end="url(#ar)"/><text x="542" y="308" font-size="12" font-style="italic" fill="#334155">ħω</text><text x="82" y="110" text-anchor="end" font-size="11.5" fill="#334155">(αħω)^(1/n)</text><polyline points="90.0,290.0 92.0,290.0 94.1,290.0 96.1,290.0 98.2,290.0 100.2,290.0 102.3,290.0 104.3,290.0 106.4,290.0 108.4,290.0 110.5,290.0 112.5,290.0 114.5,289.9 116.6,289.9 118.6,289.9 120.7,289.9 122.7,289.9 124.8,289.9 126.8,289.9 128.9,289.9 130.9,289.9 133.0,289.9 135.0,289.9 137.0,289.9 139.1,289.8 141.1,289.8 143.2,289.8 145.2,289.8 147.3,289.8 149.3,289.7 151.4,289.7 153.4,289.7 155.5,289.7 157.5,289.6 159.5,289.6 161.6,289.6 163.6,289.5 165.7,289.5 167.7,289.4 169.8,289.4 171.8,289.3 173.9,289.3 175.9,289.2 178.0,289.1 180.0,289.0 182.0,288.9 184.1,288.8 186.1,288.7 188.2,288.6 190.2,288.5 192.3,288.3 194.3,288.1 196.4,288.0 198.4,287.8 200.5,287.6 202.5,287.3 204.5,287.1 206.6,286.8 208.6,286.5 210.7,286.2 212.7,285.8 214.8,285.4 216.8,285.0 218.9,284.5 220.9,284.0 223.0,283.4 225.0,282.8 227.0,282.1 229.1,281.3 231.1,280.5 233.2,279.6 235.2,289.4 237.3,288.5 239.3,287.6 241.4,286.6 243.4,285.7 245.5,284.7 247.5,283.8 249.5,282.8 251.6,281.9 253.6,281.0 255.7,280.0 257.7,279.1 259.8,278.1 261.8,277.2 263.9,276.3 265.9,275.3 268.0,274.4 270.0,273.4 272.0,272.5 274.1,271.6 276.1,270.6 278.2,269.7 280.2,268.7 282.3,267.8 284.3,266.9 286.4,265.9 288.4,265.0 290.5,264.0 292.5,263.1 294.5,262.1 296.6,261.2 298.6,260.3 300.7,259.3 302.7,258.4 304.8,257.4 306.8,256.5 308.9,255.6 310.9,254.6 313.0,253.7 315.0,252.7 317.0,251.8 319.1,250.9 321.1,249.9 323.2,249.0 325.2,248.0 327.3,247.1 329.3,246.2 331.4,245.2 333.4,244.3 335.5,243.3 337.5,242.4 339.5,241.4 341.6,240.5 343.6,239.6 345.7,238.6 347.7,237.7 349.8,236.7 351.8,235.8 353.9,234.9 355.9,233.9 358.0,233.0 360.0,232.0 362.0,231.1 364.1,230.2 366.1,229.2 368.2,228.3 370.2,227.3 372.3,226.4 374.3,225.5 376.4,224.5 378.4,223.6 380.5,222.6 382.5,221.7 384.5,220.7 386.6,219.8 388.6,218.9 390.7,217.9 392.7,217.0 394.8,216.0 396.8,215.1 398.9,214.2 400.9,213.2 403.0,212.3 405.0,211.3 407.0,210.4 409.1,209.5 411.1,208.5 413.2,207.6 415.2,206.6 417.3,205.7 419.3,204.8 421.4,203.8 423.4,202.9 425.5,201.9 427.5,201.0 429.5,200.0 431.6,199.1 433.6,198.2 435.7,197.2 437.7,196.3 439.8,195.3 441.8,194.4 443.9,193.5 445.9,192.5 448.0,191.6 450.0,190.6 452.0,189.7 454.1,188.8 456.1,187.8 458.2,186.9 460.2,185.9 462.3,185.0 464.3,184.1 466.4,183.1 468.4,182.2 470.5,181.2 472.5,180.3 474.5,179.3 476.6,178.4 478.6,177.5 480.7,176.5 482.7,175.6 484.8,174.6 486.8,173.7 488.9,172.8 490.9,171.8 493.0,170.9 495.0,169.9 497.0,169.0 499.1,168.1 501.1,167.1 503.2,166.2 505.2,165.2 507.3,164.3 509.3,163.4 511.4,162.4 513.4,161.5 515.5,160.5 517.5,159.6 519.5,158.6 521.6,157.7 523.6,156.8 525.7,155.8 527.7,154.9 529.8,153.9 531.8,153.0 533.9,152.1 535.9,151.1 538.0,150.2 540.0,149.2" fill="none" stroke="#0d9488" stroke-width="2.6"/><line x1="234.0" y1="290.0" x2="472.5" y2="180.3" stroke="#dc2626" stroke-width="1.8" stroke-dasharray="6 4"/><line x1="234.0" y1="290" x2="234.0" y2="296" stroke="#dc2626" stroke-width="1.3"/><circle cx="234.0" cy="290.0" r="3.6" fill="#dc2626"/><text x="234.0" y="308" text-anchor="middle" font-size="11.5" font-weight="bold" fill="#dc2626">E_g</text><text x="369" y="254" font-size="11" fill="#475569">linear fit</text><text x="300" y="320" text-anchor="middle" font-size="12" fill="#475569">n = 1/2 (direct) or 2 (indirect); intercept on the energy axis is E_g.</text></svg>